ISO-10303-21;
HEADER;
/* Generated by software containing ST-Developer
 * from STEP Tools, Inc. (www.steptools.com) 
 */

FILE_DESCRIPTION(
/* description */ (''),
/* implementation_level */ '2;1');

FILE_NAME(
/* name */ 'line follower robo chasis.step',
/* time_stamp */ '2026-06-26T21:27:44+05:30',
/* author */ (''),
/* organization */ (''),
/* preprocessor_version */ 'ST-DEVELOPER v20.1',
/* originating_system */ 'Autodesk Translation Framework v15.8.0.0',
/* authorisation */ '');

FILE_SCHEMA (('AUTOMOTIVE_DESIGN { 1 0 10303 214 3 1 1 }'));
ENDSEC;

DATA;
#10=MECHANICAL_DESIGN_GEOMETRIC_PRESENTATION_REPRESENTATION('',(#13),#805);
#11=SHAPE_REPRESENTATION_RELATIONSHIP('SRR','None',#812,#12);
#12=ADVANCED_BREP_SHAPE_REPRESENTATION('',(#14),#804);
#13=STYLED_ITEM('',(#821),#14);
#14=MANIFOLD_SOLID_BREP('Body1',#473);
#15=FACE_BOUND('',#70,.T.);
#16=FACE_BOUND('',#71,.T.);
#17=FACE_BOUND('',#83,.T.);
#18=FACE_BOUND('',#84,.T.);
#19=PLANE('',#496);
#20=PLANE('',#500);
#21=PLANE('',#504);
#22=PLANE('',#508);
#23=PLANE('',#512);
#24=PLANE('',#513);
#25=PLANE('',#519);
#26=PLANE('',#522);
#27=PLANE('',#525);
#28=PLANE('',#526);
#29=PLANE('',#527);
#30=PLANE('',#528);
#31=PLANE('',#529);
#32=PLANE('',#530);
#33=FACE_OUTER_BOUND('',#57,.T.);
#34=FACE_OUTER_BOUND('',#58,.T.);
#35=FACE_OUTER_BOUND('',#59,.T.);
#36=FACE_OUTER_BOUND('',#60,.T.);
#37=FACE_OUTER_BOUND('',#61,.T.);
#38=FACE_OUTER_BOUND('',#62,.T.);
#39=FACE_OUTER_BOUND('',#63,.T.);
#40=FACE_OUTER_BOUND('',#64,.T.);
#41=FACE_OUTER_BOUND('',#65,.T.);
#42=FACE_OUTER_BOUND('',#66,.T.);
#43=FACE_OUTER_BOUND('',#67,.T.);
#44=FACE_OUTER_BOUND('',#68,.T.);
#45=FACE_OUTER_BOUND('',#69,.T.);
#46=FACE_OUTER_BOUND('',#72,.T.);
#47=FACE_OUTER_BOUND('',#73,.T.);
#48=FACE_OUTER_BOUND('',#74,.T.);
#49=FACE_OUTER_BOUND('',#75,.T.);
#50=FACE_OUTER_BOUND('',#76,.T.);
#51=FACE_OUTER_BOUND('',#77,.T.);
#52=FACE_OUTER_BOUND('',#78,.T.);
#53=FACE_OUTER_BOUND('',#79,.T.);
#54=FACE_OUTER_BOUND('',#80,.T.);
#55=FACE_OUTER_BOUND('',#81,.T.);
#56=FACE_OUTER_BOUND('',#82,.T.);
#57=EDGE_LOOP('',(#307,#308,#309,#310));
#58=EDGE_LOOP('',(#311,#312,#313,#314));
#59=EDGE_LOOP('',(#315,#316,#317,#318));
#60=EDGE_LOOP('',(#319,#320,#321,#322));
#61=EDGE_LOOP('',(#323,#324,#325,#326));
#62=EDGE_LOOP('',(#327,#328,#329,#330));
#63=EDGE_LOOP('',(#331,#332,#333,#334));
#64=EDGE_LOOP('',(#335,#336,#337,#338));
#65=EDGE_LOOP('',(#339,#340,#341,#342));
#66=EDGE_LOOP('',(#343,#344,#345,#346));
#67=EDGE_LOOP('',(#347,#348,#349,#350));
#68=EDGE_LOOP('',(#351,#352,#353,#354));
#69=EDGE_LOOP('',(#355,#356,#357,#358,#359,#360,#361,#362,#363,#364,#365,
#366,#367,#368,#369,#370,#371,#372,#373,#374));
#70=EDGE_LOOP('',(#375));
#71=EDGE_LOOP('',(#376));
#72=EDGE_LOOP('',(#377,#378,#379,#380));
#73=EDGE_LOOP('',(#381,#382,#383,#384));
#74=EDGE_LOOP('',(#385,#386,#387,#388));
#75=EDGE_LOOP('',(#389,#390,#391,#392));
#76=EDGE_LOOP('',(#393,#394,#395,#396));
#77=EDGE_LOOP('',(#397,#398,#399,#400));
#78=EDGE_LOOP('',(#401,#402,#403,#404));
#79=EDGE_LOOP('',(#405,#406,#407,#408));
#80=EDGE_LOOP('',(#409,#410,#411,#412));
#81=EDGE_LOOP('',(#413,#414,#415,#416));
#82=EDGE_LOOP('',(#417,#418,#419,#420,#421,#422,#423,#424,#425,#426,#427,
#428,#429,#430,#431,#432,#433,#434,#435,#436));
#83=EDGE_LOOP('',(#437));
#84=EDGE_LOOP('',(#438));
#85=LINE('',#672,#131);
#86=LINE('',#678,#132);
#87=LINE('',#685,#133);
#88=LINE('',#688,#134);
#89=LINE('',#691,#135);
#90=LINE('',#693,#136);
#91=LINE('',#694,#137);
#92=LINE('',#700,#138);
#93=LINE('',#703,#139);
#94=LINE('',#706,#140);
#95=LINE('',#708,#141);
#96=LINE('',#709,#142);
#97=LINE('',#715,#143);
#98=LINE('',#718,#144);
#99=LINE('',#720,#145);
#100=LINE('',#721,#146);
#101=LINE('',#726,#147);
#102=LINE('',#730,#148);
#103=LINE('',#732,#149);
#104=LINE('',#733,#150);
#105=LINE('',#739,#151);
#106=LINE('',#742,#152);
#107=LINE('',#745,#153);
#108=LINE('',#747,#154);
#109=LINE('',#748,#155);
#110=LINE('',#751,#156);
#111=LINE('',#755,#157);
#112=LINE('',#758,#158);
#113=LINE('',#760,#159);
#114=LINE('',#762,#160);
#115=LINE('',#763,#161);
#116=LINE('',#765,#162);
#117=LINE('',#770,#163);
#118=LINE('',#772,#164);
#119=LINE('',#777,#165);
#120=LINE('',#778,#166);
#121=LINE('',#780,#167);
#122=LINE('',#784,#168);
#123=LINE('',#786,#169);
#124=LINE('',#789,#170);
#125=LINE('',#790,#171);
#126=LINE('',#793,#172);
#127=LINE('',#794,#173);
#128=LINE('',#797,#174);
#129=LINE('',#798,#175);
#130=LINE('',#800,#176);
#131=VECTOR('',#537,1.5);
#132=VECTOR('',#544,1.5);
#133=VECTOR('',#551,10.);
#134=VECTOR('',#554,10.);
#135=VECTOR('',#557,10.);
#136=VECTOR('',#558,10.);
#137=VECTOR('',#559,10.);
#138=VECTOR('',#564,10.);
#139=VECTOR('',#567,10.);
#140=VECTOR('',#570,10.);
#141=VECTOR('',#571,10.);
#142=VECTOR('',#572,10.);
#143=VECTOR('',#577,10.);
#144=VECTOR('',#580,10.);
#145=VECTOR('',#583,10.);
#146=VECTOR('',#584,10.);
#147=VECTOR('',#589,10.);
#148=VECTOR('',#594,10.);
#149=VECTOR('',#595,10.);
#150=VECTOR('',#596,10.);
#151=VECTOR('',#601,10.);
#152=VECTOR('',#604,10.);
#153=VECTOR('',#607,10.);
#154=VECTOR('',#608,10.);
#155=VECTOR('',#609,10.);
#156=VECTOR('',#612,10.);
#157=VECTOR('',#615,10.);
#158=VECTOR('',#618,10.);
#159=VECTOR('',#619,10.);
#160=VECTOR('',#620,10.);
#161=VECTOR('',#621,10.);
#162=VECTOR('',#622,10.);
#163=VECTOR('',#629,10.);
#164=VECTOR('',#632,10.);
#165=VECTOR('',#637,10.);
#166=VECTOR('',#638,10.);
#167=VECTOR('',#641,10.);
#168=VECTOR('',#646,10.);
#169=VECTOR('',#649,10.);
#170=VECTOR('',#652,10.);
#171=VECTOR('',#653,10.);
#172=VECTOR('',#656,10.);
#173=VECTOR('',#657,10.);
#174=VECTOR('',#660,10.);
#175=VECTOR('',#661,10.);
#176=VECTOR('',#664,10.);
#177=CIRCLE('',#488,1.5);
#178=CIRCLE('',#489,1.5);
#179=CIRCLE('',#491,1.5);
#180=CIRCLE('',#492,1.5);
#181=CIRCLE('',#494,6.);
#182=CIRCLE('',#495,6.);
#183=CIRCLE('',#498,6.);
#184=CIRCLE('',#499,6.);
#185=CIRCLE('',#502,6.);
#186=CIRCLE('',#503,6.);
#187=CIRCLE('',#506,6.);
#188=CIRCLE('',#507,6.);
#189=CIRCLE('',#510,5.);
#190=CIRCLE('',#511,5.);
#191=CIRCLE('',#514,5.);
#192=CIRCLE('',#515,5.);
#193=CIRCLE('',#516,5.);
#194=CIRCLE('',#518,5.);
#195=CIRCLE('',#521,5.);
#196=CIRCLE('',#524,5.);
#197=VERTEX_POINT('',#669);
#198=VERTEX_POINT('',#671);
#199=VERTEX_POINT('',#675);
#200=VERTEX_POINT('',#677);
#201=VERTEX_POINT('',#681);
#202=VERTEX_POINT('',#682);
#203=VERTEX_POINT('',#684);
#204=VERTEX_POINT('',#686);
#205=VERTEX_POINT('',#690);
#206=VERTEX_POINT('',#692);
#207=VERTEX_POINT('',#696);
#208=VERTEX_POINT('',#697);
#209=VERTEX_POINT('',#699);
#210=VERTEX_POINT('',#701);
#211=VERTEX_POINT('',#705);
#212=VERTEX_POINT('',#707);
#213=VERTEX_POINT('',#711);
#214=VERTEX_POINT('',#712);
#215=VERTEX_POINT('',#714);
#216=VERTEX_POINT('',#716);
#217=VERTEX_POINT('',#723);
#218=VERTEX_POINT('',#725);
#219=VERTEX_POINT('',#729);
#220=VERTEX_POINT('',#731);
#221=VERTEX_POINT('',#735);
#222=VERTEX_POINT('',#736);
#223=VERTEX_POINT('',#738);
#224=VERTEX_POINT('',#740);
#225=VERTEX_POINT('',#744);
#226=VERTEX_POINT('',#746);
#227=VERTEX_POINT('',#750);
#228=VERTEX_POINT('',#752);
#229=VERTEX_POINT('',#754);
#230=VERTEX_POINT('',#757);
#231=VERTEX_POINT('',#759);
#232=VERTEX_POINT('',#761);
#233=VERTEX_POINT('',#764);
#234=VERTEX_POINT('',#768);
#235=VERTEX_POINT('',#774);
#236=VERTEX_POINT('',#775);
#237=VERTEX_POINT('',#782);
#238=VERTEX_POINT('',#788);
#239=VERTEX_POINT('',#792);
#240=VERTEX_POINT('',#796);
#241=EDGE_CURVE('',#197,#197,#177,.T.);
#242=EDGE_CURVE('',#197,#198,#85,.T.);
#243=EDGE_CURVE('',#198,#198,#178,.T.);
#244=EDGE_CURVE('',#199,#199,#179,.T.);
#245=EDGE_CURVE('',#199,#200,#86,.T.);
#246=EDGE_CURVE('',#200,#200,#180,.T.);
#247=EDGE_CURVE('',#201,#202,#181,.T.);
#248=EDGE_CURVE('',#202,#203,#87,.T.);
#249=EDGE_CURVE('',#203,#204,#182,.T.);
#250=EDGE_CURVE('',#204,#201,#88,.T.);
#251=EDGE_CURVE('',#205,#202,#89,.T.);
#252=EDGE_CURVE('',#205,#206,#90,.T.);
#253=EDGE_CURVE('',#203,#206,#91,.T.);
#254=EDGE_CURVE('',#207,#208,#183,.T.);
#255=EDGE_CURVE('',#208,#209,#92,.T.);
#256=EDGE_CURVE('',#209,#210,#184,.T.);
#257=EDGE_CURVE('',#210,#207,#93,.T.);
#258=EDGE_CURVE('',#211,#208,#94,.T.);
#259=EDGE_CURVE('',#212,#211,#95,.T.);
#260=EDGE_CURVE('',#209,#212,#96,.T.);
#261=EDGE_CURVE('',#213,#214,#185,.T.);
#262=EDGE_CURVE('',#214,#215,#97,.T.);
#263=EDGE_CURVE('',#215,#216,#186,.T.);
#264=EDGE_CURVE('',#216,#213,#98,.T.);
#265=EDGE_CURVE('',#215,#204,#99,.T.);
#266=EDGE_CURVE('',#201,#214,#100,.T.);
#267=EDGE_CURVE('',#211,#217,#187,.T.);
#268=EDGE_CURVE('',#217,#218,#101,.T.);
#269=EDGE_CURVE('',#218,#212,#188,.T.);
#270=EDGE_CURVE('',#219,#217,#102,.T.);
#271=EDGE_CURVE('',#220,#219,#103,.T.);
#272=EDGE_CURVE('',#218,#220,#104,.T.);
#273=EDGE_CURVE('',#221,#222,#189,.T.);
#274=EDGE_CURVE('',#222,#223,#105,.T.);
#275=EDGE_CURVE('',#223,#224,#190,.T.);
#276=EDGE_CURVE('',#224,#221,#106,.T.);
#277=EDGE_CURVE('',#225,#224,#107,.T.);
#278=EDGE_CURVE('',#226,#225,#108,.T.);
#279=EDGE_CURVE('',#221,#226,#109,.T.);
#280=EDGE_CURVE('',#223,#227,#110,.T.);
#281=EDGE_CURVE('',#228,#227,#191,.T.);
#282=EDGE_CURVE('',#228,#229,#111,.T.);
#283=EDGE_CURVE('',#219,#229,#192,.T.);
#284=EDGE_CURVE('',#207,#230,#112,.T.);
#285=EDGE_CURVE('',#230,#231,#113,.T.);
#286=EDGE_CURVE('',#231,#232,#114,.T.);
#287=EDGE_CURVE('',#232,#205,#115,.T.);
#288=EDGE_CURVE('',#213,#233,#116,.T.);
#289=EDGE_CURVE('',#225,#233,#193,.T.);
#290=EDGE_CURVE('',#234,#226,#194,.T.);
#291=EDGE_CURVE('',#233,#234,#117,.T.);
#292=EDGE_CURVE('',#234,#216,#118,.T.);
#293=EDGE_CURVE('',#235,#236,#195,.T.);
#294=EDGE_CURVE('',#236,#228,#119,.T.);
#295=EDGE_CURVE('',#227,#235,#120,.T.);
#296=EDGE_CURVE('',#235,#222,#121,.T.);
#297=EDGE_CURVE('',#237,#220,#196,.T.);
#298=EDGE_CURVE('',#229,#237,#122,.T.);
#299=EDGE_CURVE('',#237,#236,#123,.T.);
#300=EDGE_CURVE('',#238,#210,#124,.T.);
#301=EDGE_CURVE('',#230,#238,#125,.T.);
#302=EDGE_CURVE('',#239,#238,#126,.T.);
#303=EDGE_CURVE('',#231,#239,#127,.T.);
#304=EDGE_CURVE('',#240,#239,#128,.T.);
#305=EDGE_CURVE('',#232,#240,#129,.T.);
#306=EDGE_CURVE('',#206,#240,#130,.T.);
#307=ORIENTED_EDGE('',*,*,#241,.F.);
#308=ORIENTED_EDGE('',*,*,#242,.T.);
#309=ORIENTED_EDGE('',*,*,#243,.F.);
#310=ORIENTED_EDGE('',*,*,#242,.F.);
#311=ORIENTED_EDGE('',*,*,#244,.F.);
#312=ORIENTED_EDGE('',*,*,#245,.T.);
#313=ORIENTED_EDGE('',*,*,#246,.F.);
#314=ORIENTED_EDGE('',*,*,#245,.F.);
#315=ORIENTED_EDGE('',*,*,#247,.T.);
#316=ORIENTED_EDGE('',*,*,#248,.T.);
#317=ORIENTED_EDGE('',*,*,#249,.T.);
#318=ORIENTED_EDGE('',*,*,#250,.T.);
#319=ORIENTED_EDGE('',*,*,#248,.F.);
#320=ORIENTED_EDGE('',*,*,#251,.F.);
#321=ORIENTED_EDGE('',*,*,#252,.T.);
#322=ORIENTED_EDGE('',*,*,#253,.F.);
#323=ORIENTED_EDGE('',*,*,#254,.T.);
#324=ORIENTED_EDGE('',*,*,#255,.T.);
#325=ORIENTED_EDGE('',*,*,#256,.T.);
#326=ORIENTED_EDGE('',*,*,#257,.T.);
#327=ORIENTED_EDGE('',*,*,#255,.F.);
#328=ORIENTED_EDGE('',*,*,#258,.F.);
#329=ORIENTED_EDGE('',*,*,#259,.F.);
#330=ORIENTED_EDGE('',*,*,#260,.F.);
#331=ORIENTED_EDGE('',*,*,#261,.T.);
#332=ORIENTED_EDGE('',*,*,#262,.T.);
#333=ORIENTED_EDGE('',*,*,#263,.T.);
#334=ORIENTED_EDGE('',*,*,#264,.T.);
#335=ORIENTED_EDGE('',*,*,#250,.F.);
#336=ORIENTED_EDGE('',*,*,#265,.F.);
#337=ORIENTED_EDGE('',*,*,#262,.F.);
#338=ORIENTED_EDGE('',*,*,#266,.F.);
#339=ORIENTED_EDGE('',*,*,#267,.T.);
#340=ORIENTED_EDGE('',*,*,#268,.T.);
#341=ORIENTED_EDGE('',*,*,#269,.T.);
#342=ORIENTED_EDGE('',*,*,#259,.T.);
#343=ORIENTED_EDGE('',*,*,#268,.F.);
#344=ORIENTED_EDGE('',*,*,#270,.F.);
#345=ORIENTED_EDGE('',*,*,#271,.F.);
#346=ORIENTED_EDGE('',*,*,#272,.F.);
#347=ORIENTED_EDGE('',*,*,#273,.T.);
#348=ORIENTED_EDGE('',*,*,#274,.T.);
#349=ORIENTED_EDGE('',*,*,#275,.T.);
#350=ORIENTED_EDGE('',*,*,#276,.T.);
#351=ORIENTED_EDGE('',*,*,#276,.F.);
#352=ORIENTED_EDGE('',*,*,#277,.F.);
#353=ORIENTED_EDGE('',*,*,#278,.F.);
#354=ORIENTED_EDGE('',*,*,#279,.F.);
#355=ORIENTED_EDGE('',*,*,#275,.F.);
#356=ORIENTED_EDGE('',*,*,#280,.T.);
#357=ORIENTED_EDGE('',*,*,#281,.F.);
#358=ORIENTED_EDGE('',*,*,#282,.T.);
#359=ORIENTED_EDGE('',*,*,#283,.F.);
#360=ORIENTED_EDGE('',*,*,#270,.T.);
#361=ORIENTED_EDGE('',*,*,#267,.F.);
#362=ORIENTED_EDGE('',*,*,#258,.T.);
#363=ORIENTED_EDGE('',*,*,#254,.F.);
#364=ORIENTED_EDGE('',*,*,#284,.T.);
#365=ORIENTED_EDGE('',*,*,#285,.T.);
#366=ORIENTED_EDGE('',*,*,#286,.T.);
#367=ORIENTED_EDGE('',*,*,#287,.T.);
#368=ORIENTED_EDGE('',*,*,#251,.T.);
#369=ORIENTED_EDGE('',*,*,#247,.F.);
#370=ORIENTED_EDGE('',*,*,#266,.T.);
#371=ORIENTED_EDGE('',*,*,#261,.F.);
#372=ORIENTED_EDGE('',*,*,#288,.T.);
#373=ORIENTED_EDGE('',*,*,#289,.F.);
#374=ORIENTED_EDGE('',*,*,#277,.T.);
#375=ORIENTED_EDGE('',*,*,#243,.T.);
#376=ORIENTED_EDGE('',*,*,#246,.T.);
#377=ORIENTED_EDGE('',*,*,#290,.T.);
#378=ORIENTED_EDGE('',*,*,#278,.T.);
#379=ORIENTED_EDGE('',*,*,#289,.T.);
#380=ORIENTED_EDGE('',*,*,#291,.T.);
#381=ORIENTED_EDGE('',*,*,#264,.F.);
#382=ORIENTED_EDGE('',*,*,#292,.F.);
#383=ORIENTED_EDGE('',*,*,#291,.F.);
#384=ORIENTED_EDGE('',*,*,#288,.F.);
#385=ORIENTED_EDGE('',*,*,#293,.T.);
#386=ORIENTED_EDGE('',*,*,#294,.T.);
#387=ORIENTED_EDGE('',*,*,#281,.T.);
#388=ORIENTED_EDGE('',*,*,#295,.T.);
#389=ORIENTED_EDGE('',*,*,#274,.F.);
#390=ORIENTED_EDGE('',*,*,#296,.F.);
#391=ORIENTED_EDGE('',*,*,#295,.F.);
#392=ORIENTED_EDGE('',*,*,#280,.F.);
#393=ORIENTED_EDGE('',*,*,#297,.T.);
#394=ORIENTED_EDGE('',*,*,#271,.T.);
#395=ORIENTED_EDGE('',*,*,#283,.T.);
#396=ORIENTED_EDGE('',*,*,#298,.T.);
#397=ORIENTED_EDGE('',*,*,#294,.F.);
#398=ORIENTED_EDGE('',*,*,#299,.F.);
#399=ORIENTED_EDGE('',*,*,#298,.F.);
#400=ORIENTED_EDGE('',*,*,#282,.F.);
#401=ORIENTED_EDGE('',*,*,#257,.F.);
#402=ORIENTED_EDGE('',*,*,#300,.F.);
#403=ORIENTED_EDGE('',*,*,#301,.F.);
#404=ORIENTED_EDGE('',*,*,#284,.F.);
#405=ORIENTED_EDGE('',*,*,#285,.F.);
#406=ORIENTED_EDGE('',*,*,#301,.T.);
#407=ORIENTED_EDGE('',*,*,#302,.F.);
#408=ORIENTED_EDGE('',*,*,#303,.F.);
#409=ORIENTED_EDGE('',*,*,#286,.F.);
#410=ORIENTED_EDGE('',*,*,#303,.T.);
#411=ORIENTED_EDGE('',*,*,#304,.F.);
#412=ORIENTED_EDGE('',*,*,#305,.F.);
#413=ORIENTED_EDGE('',*,*,#287,.F.);
#414=ORIENTED_EDGE('',*,*,#305,.T.);
#415=ORIENTED_EDGE('',*,*,#306,.F.);
#416=ORIENTED_EDGE('',*,*,#252,.F.);
#417=ORIENTED_EDGE('',*,*,#273,.F.);
#418=ORIENTED_EDGE('',*,*,#279,.T.);
#419=ORIENTED_EDGE('',*,*,#290,.F.);
#420=ORIENTED_EDGE('',*,*,#292,.T.);
#421=ORIENTED_EDGE('',*,*,#263,.F.);
#422=ORIENTED_EDGE('',*,*,#265,.T.);
#423=ORIENTED_EDGE('',*,*,#249,.F.);
#424=ORIENTED_EDGE('',*,*,#253,.T.);
#425=ORIENTED_EDGE('',*,*,#306,.T.);
#426=ORIENTED_EDGE('',*,*,#304,.T.);
#427=ORIENTED_EDGE('',*,*,#302,.T.);
#428=ORIENTED_EDGE('',*,*,#300,.T.);
#429=ORIENTED_EDGE('',*,*,#256,.F.);
#430=ORIENTED_EDGE('',*,*,#260,.T.);
#431=ORIENTED_EDGE('',*,*,#269,.F.);
#432=ORIENTED_EDGE('',*,*,#272,.T.);
#433=ORIENTED_EDGE('',*,*,#297,.F.);
#434=ORIENTED_EDGE('',*,*,#299,.T.);
#435=ORIENTED_EDGE('',*,*,#293,.F.);
#436=ORIENTED_EDGE('',*,*,#296,.T.);
#437=ORIENTED_EDGE('',*,*,#241,.T.);
#438=ORIENTED_EDGE('',*,*,#244,.T.);
#439=CYLINDRICAL_SURFACE('',#487,1.5);
#440=CYLINDRICAL_SURFACE('',#490,1.5);
#441=CYLINDRICAL_SURFACE('',#493,6.);
#442=CYLINDRICAL_SURFACE('',#497,6.);
#443=CYLINDRICAL_SURFACE('',#501,6.);
#444=CYLINDRICAL_SURFACE('',#505,6.);
#445=CYLINDRICAL_SURFACE('',#509,5.);
#446=CYLINDRICAL_SURFACE('',#517,5.);
#447=CYLINDRICAL_SURFACE('',#520,5.);
#448=CYLINDRICAL_SURFACE('',#523,5.);
#449=ADVANCED_FACE('',(#33),#439,.F.);
#450=ADVANCED_FACE('',(#34),#440,.F.);
#451=ADVANCED_FACE('',(#35),#441,.F.);
#452=ADVANCED_FACE('',(#36),#19,.T.);
#453=ADVANCED_FACE('',(#37),#442,.F.);
#454=ADVANCED_FACE('',(#38),#20,.T.);
#455=ADVANCED_FACE('',(#39),#443,.F.);
#456=ADVANCED_FACE('',(#40),#21,.T.);
#457=ADVANCED_FACE('',(#41),#444,.F.);
#458=ADVANCED_FACE('',(#42),#22,.T.);
#459=ADVANCED_FACE('',(#43),#445,.T.);
#460=ADVANCED_FACE('',(#44),#23,.T.);
#461=ADVANCED_FACE('',(#45,#15,#16),#24,.F.);
#462=ADVANCED_FACE('',(#46),#446,.T.);
#463=ADVANCED_FACE('',(#47),#25,.T.);
#464=ADVANCED_FACE('',(#48),#447,.T.);
#465=ADVANCED_FACE('',(#49),#26,.T.);
#466=ADVANCED_FACE('',(#50),#448,.T.);
#467=ADVANCED_FACE('',(#51),#27,.T.);
#468=ADVANCED_FACE('',(#52),#28,.T.);
#469=ADVANCED_FACE('',(#53),#29,.T.);
#470=ADVANCED_FACE('',(#54),#30,.T.);
#471=ADVANCED_FACE('',(#55),#31,.T.);
#472=ADVANCED_FACE('',(#56,#17,#18),#32,.T.);
#473=CLOSED_SHELL('',(#449,#450,#451,#452,#453,#454,#455,#456,#457,#458,
#459,#460,#461,#462,#463,#464,#465,#466,#467,#468,#469,#470,#471,#472));
#474=DERIVED_UNIT_ELEMENT(#476,1.);
#475=DERIVED_UNIT_ELEMENT(#807,-3.);
#476=(
MASS_UNIT()
NAMED_UNIT(*)
SI_UNIT(.KILO.,.GRAM.)
);
#477=DERIVED_UNIT((#474,#475));
#478=MEASURE_REPRESENTATION_ITEM('density measure',
POSITIVE_RATIO_MEASURE(7850.),#477);
#479=PROPERTY_DEFINITION_REPRESENTATION(#484,#481);
#480=PROPERTY_DEFINITION_REPRESENTATION(#485,#482);
#481=REPRESENTATION('material name',(#483),#804);
#482=REPRESENTATION('density',(#478),#804);
#483=DESCRIPTIVE_REPRESENTATION_ITEM('Steel','Steel');
#484=PROPERTY_DEFINITION('material property','material name',#814);
#485=PROPERTY_DEFINITION('material property','density of part',#814);
#486=AXIS2_PLACEMENT_3D('',#667,#531,#532);
#487=AXIS2_PLACEMENT_3D('',#668,#533,#534);
#488=AXIS2_PLACEMENT_3D('',#670,#535,#536);
#489=AXIS2_PLACEMENT_3D('',#673,#538,#539);
#490=AXIS2_PLACEMENT_3D('',#674,#540,#541);
#491=AXIS2_PLACEMENT_3D('',#676,#542,#543);
#492=AXIS2_PLACEMENT_3D('',#679,#545,#546);
#493=AXIS2_PLACEMENT_3D('',#680,#547,#548);
#494=AXIS2_PLACEMENT_3D('',#683,#549,#550);
#495=AXIS2_PLACEMENT_3D('',#687,#552,#553);
#496=AXIS2_PLACEMENT_3D('',#689,#555,#556);
#497=AXIS2_PLACEMENT_3D('',#695,#560,#561);
#498=AXIS2_PLACEMENT_3D('',#698,#562,#563);
#499=AXIS2_PLACEMENT_3D('',#702,#565,#566);
#500=AXIS2_PLACEMENT_3D('',#704,#568,#569);
#501=AXIS2_PLACEMENT_3D('',#710,#573,#574);
#502=AXIS2_PLACEMENT_3D('',#713,#575,#576);
#503=AXIS2_PLACEMENT_3D('',#717,#578,#579);
#504=AXIS2_PLACEMENT_3D('',#719,#581,#582);
#505=AXIS2_PLACEMENT_3D('',#722,#585,#586);
#506=AXIS2_PLACEMENT_3D('',#724,#587,#588);
#507=AXIS2_PLACEMENT_3D('',#727,#590,#591);
#508=AXIS2_PLACEMENT_3D('',#728,#592,#593);
#509=AXIS2_PLACEMENT_3D('',#734,#597,#598);
#510=AXIS2_PLACEMENT_3D('',#737,#599,#600);
#511=AXIS2_PLACEMENT_3D('',#741,#602,#603);
#512=AXIS2_PLACEMENT_3D('',#743,#605,#606);
#513=AXIS2_PLACEMENT_3D('',#749,#610,#611);
#514=AXIS2_PLACEMENT_3D('',#753,#613,#614);
#515=AXIS2_PLACEMENT_3D('',#756,#616,#617);
#516=AXIS2_PLACEMENT_3D('',#766,#623,#624);
#517=AXIS2_PLACEMENT_3D('',#767,#625,#626);
#518=AXIS2_PLACEMENT_3D('',#769,#627,#628);
#519=AXIS2_PLACEMENT_3D('',#771,#630,#631);
#520=AXIS2_PLACEMENT_3D('',#773,#633,#634);
#521=AXIS2_PLACEMENT_3D('',#776,#635,#636);
#522=AXIS2_PLACEMENT_3D('',#779,#639,#640);
#523=AXIS2_PLACEMENT_3D('',#781,#642,#643);
#524=AXIS2_PLACEMENT_3D('',#783,#644,#645);
#525=AXIS2_PLACEMENT_3D('',#785,#647,#648);
#526=AXIS2_PLACEMENT_3D('',#787,#650,#651);
#527=AXIS2_PLACEMENT_3D('',#791,#654,#655);
#528=AXIS2_PLACEMENT_3D('',#795,#658,#659);
#529=AXIS2_PLACEMENT_3D('',#799,#662,#663);
#530=AXIS2_PLACEMENT_3D('',#801,#665,#666);
#531=DIRECTION('axis',(0.,0.,1.));
#532=DIRECTION('refdir',(1.,0.,0.));
#533=DIRECTION('center_axis',(0.,0.,-1.));
#534=DIRECTION('ref_axis',(1.,0.,0.));
#535=DIRECTION('center_axis',(0.,0.,-1.));
#536=DIRECTION('ref_axis',(1.,0.,0.));
#537=DIRECTION('',(0.,0.,-1.));
#538=DIRECTION('center_axis',(0.,0.,1.));
#539=DIRECTION('ref_axis',(1.,0.,0.));
#540=DIRECTION('center_axis',(0.,0.,-1.));
#541=DIRECTION('ref_axis',(1.,0.,0.));
#542=DIRECTION('center_axis',(0.,0.,-1.));
#543=DIRECTION('ref_axis',(1.,0.,0.));
#544=DIRECTION('',(0.,0.,-1.));
#545=DIRECTION('center_axis',(0.,0.,1.));
#546=DIRECTION('ref_axis',(1.,0.,0.));
#547=DIRECTION('center_axis',(0.,0.,1.));
#548=DIRECTION('ref_axis',(0.707106781186548,-0.707106781186547,0.));
#549=DIRECTION('center_axis',(0.,0.,-1.));
#550=DIRECTION('ref_axis',(0.707106781186548,-0.707106781186547,0.));
#551=DIRECTION('',(0.,0.,1.));
#552=DIRECTION('center_axis',(0.,0.,1.));
#553=DIRECTION('ref_axis',(0.707106781186548,-0.707106781186547,0.));
#554=DIRECTION('',(0.,0.,-1.));
#555=DIRECTION('center_axis',(0.,1.,0.));
#556=DIRECTION('ref_axis',(-1.,0.,0.));
#557=DIRECTION('',(1.,0.,0.));
#558=DIRECTION('',(0.,0.,1.));
#559=DIRECTION('',(-1.,0.,0.));
#560=DIRECTION('center_axis',(0.,0.,1.));
#561=DIRECTION('ref_axis',(-0.707106781186548,-0.707106781186547,0.));
#562=DIRECTION('center_axis',(0.,0.,-1.));
#563=DIRECTION('ref_axis',(-0.707106781186548,-0.707106781186547,0.));
#564=DIRECTION('',(0.,0.,1.));
#565=DIRECTION('center_axis',(0.,0.,1.));
#566=DIRECTION('ref_axis',(-0.707106781186548,-0.707106781186547,0.));
#567=DIRECTION('',(0.,0.,-1.));
#568=DIRECTION('center_axis',(1.,-2.59052039079203E-16,0.));
#569=DIRECTION('ref_axis',(2.59052039079203E-16,1.,0.));
#570=DIRECTION('',(-2.59052039079203E-16,-1.,0.));
#571=DIRECTION('',(0.,0.,-1.));
#572=DIRECTION('',(2.59052039079203E-16,1.,0.));
#573=DIRECTION('center_axis',(0.,0.,1.));
#574=DIRECTION('ref_axis',(0.707106781186548,0.707106781186548,0.));
#575=DIRECTION('center_axis',(0.,0.,-1.));
#576=DIRECTION('ref_axis',(0.707106781186548,0.707106781186548,0.));
#577=DIRECTION('',(0.,0.,1.));
#578=DIRECTION('center_axis',(0.,0.,1.));
#579=DIRECTION('ref_axis',(0.707106781186548,0.707106781186548,0.));
#580=DIRECTION('',(0.,0.,-1.));
#581=DIRECTION('center_axis',(-1.,7.40148683083438E-17,0.));
#582=DIRECTION('ref_axis',(-7.40148683083438E-17,-1.,0.));
#583=DIRECTION('',(-7.40148683083438E-17,-1.,0.));
#584=DIRECTION('',(7.40148683083438E-17,1.,0.));
#585=DIRECTION('center_axis',(0.,0.,1.));
#586=DIRECTION('ref_axis',(-0.707106781186547,0.707106781186548,0.));
#587=DIRECTION('center_axis',(0.,0.,-1.));
#588=DIRECTION('ref_axis',(-0.707106781186547,0.707106781186548,0.));
#589=DIRECTION('',(0.,0.,1.));
#590=DIRECTION('center_axis',(0.,0.,1.));
#591=DIRECTION('ref_axis',(-0.707106781186547,0.707106781186548,0.));
#592=DIRECTION('center_axis',(6.90436485974745E-17,-1.,0.));
#593=DIRECTION('ref_axis',(1.,6.90436485974745E-17,0.));
#594=DIRECTION('',(-1.,-6.90436485974745E-17,0.));
#595=DIRECTION('',(0.,0.,-1.));
#596=DIRECTION('',(1.,6.90436485974745E-17,0.));
#597=DIRECTION('center_axis',(0.,0.,1.));
#598=DIRECTION('ref_axis',(-0.707106781186547,0.707106781186547,0.));
#599=DIRECTION('center_axis',(0.,0.,-1.));
#600=DIRECTION('ref_axis',(-0.707106781186547,0.707106781186547,0.));
#601=DIRECTION('',(0.,0.,-1.));
#602=DIRECTION('center_axis',(0.,0.,1.));
#603=DIRECTION('ref_axis',(-0.707106781186547,0.707106781186547,0.));
#604=DIRECTION('',(0.,0.,1.));
#605=DIRECTION('center_axis',(-1.,8.88178419700125E-17,0.));
#606=DIRECTION('ref_axis',(-8.88178419700125E-17,-1.,0.));
#607=DIRECTION('',(8.88178419700125E-17,1.,0.));
#608=DIRECTION('',(0.,0.,-1.));
#609=DIRECTION('',(-8.88178419700125E-17,-1.,0.));
#610=DIRECTION('center_axis',(0.,0.,1.));
#611=DIRECTION('ref_axis',(1.,0.,0.));
#612=DIRECTION('',(1.,0.,0.));
#613=DIRECTION('center_axis',(0.,0.,1.));
#614=DIRECTION('ref_axis',(0.707106781186547,0.707106781186547,0.));
#615=DIRECTION('',(-8.88178419700125E-17,-1.,0.));
#616=DIRECTION('center_axis',(0.,0.,1.));
#617=DIRECTION('ref_axis',(0.707106781186547,-0.707106781186547,0.));
#618=DIRECTION('',(1.,0.,0.));
#619=DIRECTION('',(0.,-1.,0.));
#620=DIRECTION('',(-1.,0.,0.));
#621=DIRECTION('',(0.,1.,0.));
#622=DIRECTION('',(-1.,1.22464752909372E-18,0.));
#623=DIRECTION('center_axis',(0.,0.,1.));
#624=DIRECTION('ref_axis',(-0.707106781186547,-0.707106781186547,0.));
#625=DIRECTION('center_axis',(0.,0.,1.));
#626=DIRECTION('ref_axis',(-0.707106781186547,-0.707106781186547,0.));
#627=DIRECTION('center_axis',(0.,0.,-1.));
#628=DIRECTION('ref_axis',(-0.707106781186547,-0.707106781186547,0.));
#629=DIRECTION('',(0.,0.,1.));
#630=DIRECTION('center_axis',(-1.22464752909372E-18,-1.,0.));
#631=DIRECTION('ref_axis',(1.,-1.22464752909372E-18,0.));
#632=DIRECTION('',(1.,-1.22464752909372E-18,0.));
#633=DIRECTION('center_axis',(0.,0.,1.));
#634=DIRECTION('ref_axis',(0.707106781186547,0.707106781186547,0.));
#635=DIRECTION('center_axis',(0.,0.,-1.));
#636=DIRECTION('ref_axis',(0.707106781186547,0.707106781186547,0.));
#637=DIRECTION('',(0.,0.,-1.));
#638=DIRECTION('',(0.,0.,1.));
#639=DIRECTION('center_axis',(0.,1.,0.));
#640=DIRECTION('ref_axis',(-1.,0.,0.));
#641=DIRECTION('',(-1.,0.,0.));
#642=DIRECTION('center_axis',(0.,0.,1.));
#643=DIRECTION('ref_axis',(0.707106781186547,-0.707106781186547,0.));
#644=DIRECTION('center_axis',(0.,0.,-1.));
#645=DIRECTION('ref_axis',(0.707106781186547,-0.707106781186547,0.));
#646=DIRECTION('',(0.,0.,1.));
#647=DIRECTION('center_axis',(1.,-8.88178419700125E-17,0.));
#648=DIRECTION('ref_axis',(8.88178419700125E-17,1.,0.));
#649=DIRECTION('',(8.88178419700125E-17,1.,0.));
#650=DIRECTION('center_axis',(0.,1.,0.));
#651=DIRECTION('ref_axis',(-1.,0.,0.));
#652=DIRECTION('',(-1.,0.,0.));
#653=DIRECTION('',(0.,0.,1.));
#654=DIRECTION('center_axis',(1.,0.,0.));
#655=DIRECTION('ref_axis',(0.,1.,0.));
#656=DIRECTION('',(0.,1.,0.));
#657=DIRECTION('',(0.,0.,1.));
#658=DIRECTION('center_axis',(0.,-1.,0.));
#659=DIRECTION('ref_axis',(1.,0.,0.));
#660=DIRECTION('',(1.,0.,0.));
#661=DIRECTION('',(0.,0.,1.));
#662=DIRECTION('center_axis',(-1.,0.,0.));
#663=DIRECTION('ref_axis',(0.,-1.,0.));
#664=DIRECTION('',(0.,-1.,0.));
#665=DIRECTION('center_axis',(0.,0.,1.));
#666=DIRECTION('ref_axis',(1.,0.,0.));
#667=CARTESIAN_POINT('',(0.,0.,0.));
#668=CARTESIAN_POINT('Origin',(12.6439448867904,-64.5934113147145,-1.));
#669=CARTESIAN_POINT('',(11.1439448867904,-64.5934113147145,4.));
#670=CARTESIAN_POINT('Origin',(12.6439448867904,-64.5934113147145,4.));
#671=CARTESIAN_POINT('',(11.1439448867904,-64.5934113147145,0.));
#672=CARTESIAN_POINT('',(11.1439448867904,-64.5934113147145,-1.));
#673=CARTESIAN_POINT('Origin',(12.6439448867904,-64.5934113147145,0.));
#674=CARTESIAN_POINT('Origin',(-13.1996077694501,-64.4309431381296,-1.));
#675=CARTESIAN_POINT('',(-14.6996077694501,-64.4309431381296,4.));
#676=CARTESIAN_POINT('Origin',(-13.1996077694501,-64.4309431381296,4.));
#677=CARTESIAN_POINT('',(-14.6996077694501,-64.4309431381296,0.));
#678=CARTESIAN_POINT('',(-14.6996077694501,-64.4309431381296,-1.));
#679=CARTESIAN_POINT('Origin',(-13.1996077694501,-64.4309431381296,0.));
#680=CARTESIAN_POINT('Origin',(-18.0000011920929,-54.,0.));
#681=CARTESIAN_POINT('',(-12.0000011920929,-54.,0.));
#682=CARTESIAN_POINT('',(-18.0000011920929,-60.,0.));
#683=CARTESIAN_POINT('Origin',(-18.0000011920929,-54.,0.));
#684=CARTESIAN_POINT('',(-18.0000011920929,-60.,4.));
#685=CARTESIAN_POINT('',(-18.0000011920929,-60.,0.));
#686=CARTESIAN_POINT('',(-12.0000011920929,-54.,4.));
#687=CARTESIAN_POINT('Origin',(-18.0000011920929,-54.,4.));
#688=CARTESIAN_POINT('',(-12.0000011920929,-54.,0.));
#689=CARTESIAN_POINT('Origin',(-12.0000011920929,-60.,0.));
#690=CARTESIAN_POINT('',(-40.0000011920929,-60.,0.));
#691=CARTESIAN_POINT('',(-40.0000011920929,-60.,0.));
#692=CARTESIAN_POINT('',(-40.0000011920929,-60.,4.));
#693=CARTESIAN_POINT('',(-40.0000011920929,-60.,0.));
#694=CARTESIAN_POINT('',(-40.0000011920929,-60.,4.));
#695=CARTESIAN_POINT('Origin',(15.9999988079071,-54.,0.));
#696=CARTESIAN_POINT('',(15.9999988079071,-60.,0.));
#697=CARTESIAN_POINT('',(9.99999880790713,-54.,0.));
#698=CARTESIAN_POINT('Origin',(15.9999988079071,-54.,0.));
#699=CARTESIAN_POINT('',(9.99999880790713,-54.,4.));
#700=CARTESIAN_POINT('',(9.99999880790713,-54.,0.));
#701=CARTESIAN_POINT('',(15.9999988079071,-60.,4.));
#702=CARTESIAN_POINT('Origin',(15.9999988079071,-54.,4.));
#703=CARTESIAN_POINT('',(15.9999988079071,-60.,0.));
#704=CARTESIAN_POINT('Origin',(9.99999880790713,-60.,0.));
#705=CARTESIAN_POINT('',(9.99999880790714,-6.,0.));
#706=CARTESIAN_POINT('',(9.99999880790714,-3.2683797192561E-15,0.));
#707=CARTESIAN_POINT('',(9.99999880790714,-6.,4.));
#708=CARTESIAN_POINT('',(9.99999880790714,-6.,0.));
#709=CARTESIAN_POINT('',(9.99999880790714,-3.2683797192561E-15,4.));
#710=CARTESIAN_POINT('Origin',(-18.0000011920929,-6.,0.));
#711=CARTESIAN_POINT('',(-18.0000011920929,6.85802616292475E-17,0.));
#712=CARTESIAN_POINT('',(-12.0000011920929,-6.,0.));
#713=CARTESIAN_POINT('Origin',(-18.0000011920929,-6.,0.));
#714=CARTESIAN_POINT('',(-12.0000011920929,-6.,4.));
#715=CARTESIAN_POINT('',(-12.0000011920929,-6.,0.));
#716=CARTESIAN_POINT('',(-18.0000011920929,6.85802616292475E-17,4.));
#717=CARTESIAN_POINT('Origin',(-18.0000011920929,-6.,4.));
#718=CARTESIAN_POINT('',(-18.0000011920929,0.,0.));
#719=CARTESIAN_POINT('Origin',(-12.0000011920929,0.,0.));
#720=CARTESIAN_POINT('',(-12.0000011920929,-60.,4.));
#721=CARTESIAN_POINT('',(-12.0000011920929,-60.,0.));
#722=CARTESIAN_POINT('Origin',(15.9999988079071,-6.00000000000001,0.));
#723=CARTESIAN_POINT('',(15.9999988079071,-2.85411782767125E-15,0.));
#724=CARTESIAN_POINT('Origin',(15.9999988079071,-6.00000000000001,0.));
#725=CARTESIAN_POINT('',(15.9999988079071,-2.85411782767125E-15,4.));
#726=CARTESIAN_POINT('',(15.9999988079071,-3.33066907387547E-15,0.));
#727=CARTESIAN_POINT('Origin',(15.9999988079071,-6.00000000000001,4.));
#728=CARTESIAN_POINT('Origin',(9.99999880790714,-3.2683797192561E-15,0.));
#729=CARTESIAN_POINT('',(54.9999988079071,-1.61415532369744E-16,0.));
#730=CARTESIAN_POINT('',(59.9999988079071,1.83802710617629E-16,0.));
#731=CARTESIAN_POINT('',(54.9999988079071,-1.61415532369744E-16,4.));
#732=CARTESIAN_POINT('',(54.9999988079071,0.,0.));
#733=CARTESIAN_POINT('',(59.9999988079071,1.83802710617629E-16,4.));
#734=CARTESIAN_POINT('Origin',(-57.0000011920929,95.,0.));
#735=CARTESIAN_POINT('',(-62.0000011920929,95.,4.));
#736=CARTESIAN_POINT('',(-57.0000011920929,100.,4.));
#737=CARTESIAN_POINT('Origin',(-57.0000011920929,95.,4.));
#738=CARTESIAN_POINT('',(-57.0000011920929,100.,0.));
#739=CARTESIAN_POINT('',(-57.0000011920929,100.,0.));
#740=CARTESIAN_POINT('',(-62.0000011920929,95.,0.));
#741=CARTESIAN_POINT('Origin',(-57.0000011920929,95.,0.));
#742=CARTESIAN_POINT('',(-62.0000011920929,95.,0.));
#743=CARTESIAN_POINT('Origin',(-62.0000011920929,100.,0.));
#744=CARTESIAN_POINT('',(-62.0000011920929,5.,0.));
#745=CARTESIAN_POINT('',(-62.0000011920929,1.22464752909371E-16,0.));
#746=CARTESIAN_POINT('',(-62.0000011920929,5.,4.));
#747=CARTESIAN_POINT('',(-62.0000011920929,5.,0.));
#748=CARTESIAN_POINT('',(-62.0000011920929,1.22464752909371E-16,4.));
#749=CARTESIAN_POINT('Origin',(-1.00000119209286,15.,0.));
#750=CARTESIAN_POINT('',(54.9999988079071,100.,0.));
#751=CARTESIAN_POINT('',(-62.0000011920929,100.,0.));
#752=CARTESIAN_POINT('',(59.9999988079071,95.,0.));
#753=CARTESIAN_POINT('Origin',(54.9999988079071,95.,0.));
#754=CARTESIAN_POINT('',(59.9999988079071,5.,0.));
#755=CARTESIAN_POINT('',(59.9999988079071,100.,0.));
#756=CARTESIAN_POINT('Origin',(54.9999988079071,5.,0.));
#757=CARTESIAN_POINT('',(37.9999988079071,-60.,0.));
#758=CARTESIAN_POINT('',(9.99999880790713,-60.,0.));
#759=CARTESIAN_POINT('',(37.9999988079071,-70.,0.));
#760=CARTESIAN_POINT('',(37.9999988079071,-60.,0.));
#761=CARTESIAN_POINT('',(-40.0000011920929,-70.,0.));
#762=CARTESIAN_POINT('',(37.9999988079071,-70.,0.));
#763=CARTESIAN_POINT('',(-40.0000011920929,-70.,0.));
#764=CARTESIAN_POINT('',(-57.0000011920929,1.16341515263903E-16,0.));
#765=CARTESIAN_POINT('',(-12.0000011920929,6.12323764546851E-17,0.));
#766=CARTESIAN_POINT('Origin',(-57.0000011920929,5.,0.));
#767=CARTESIAN_POINT('Origin',(-57.0000011920929,5.,0.));
#768=CARTESIAN_POINT('',(-57.0000011920929,1.16341515263903E-16,4.));
#769=CARTESIAN_POINT('Origin',(-57.0000011920929,5.,4.));
#770=CARTESIAN_POINT('',(-57.0000011920929,0.,0.));
#771=CARTESIAN_POINT('Origin',(-62.0000011920929,1.22464752909371E-16,0.));
#772=CARTESIAN_POINT('',(-12.0000011920929,6.12323764546851E-17,4.));
#773=CARTESIAN_POINT('Origin',(54.9999988079071,95.,0.));
#774=CARTESIAN_POINT('',(54.9999988079071,100.,4.));
#775=CARTESIAN_POINT('',(59.9999988079071,95.,4.));
#776=CARTESIAN_POINT('Origin',(54.9999988079071,95.,4.));
#777=CARTESIAN_POINT('',(59.9999988079071,95.,0.));
#778=CARTESIAN_POINT('',(54.9999988079071,100.,0.));
#779=CARTESIAN_POINT('Origin',(59.9999988079071,100.,0.));
#780=CARTESIAN_POINT('',(-62.0000011920929,100.,4.));
#781=CARTESIAN_POINT('Origin',(54.9999988079071,5.,0.));
#782=CARTESIAN_POINT('',(59.9999988079071,5.,4.));
#783=CARTESIAN_POINT('Origin',(54.9999988079071,5.,4.));
#784=CARTESIAN_POINT('',(59.9999988079071,5.,0.));
#785=CARTESIAN_POINT('Origin',(59.9999988079071,0.,0.));
#786=CARTESIAN_POINT('',(59.9999988079071,100.,4.));
#787=CARTESIAN_POINT('Origin',(37.9999988079071,-60.,0.));
#788=CARTESIAN_POINT('',(37.9999988079071,-60.,4.));
#789=CARTESIAN_POINT('',(9.99999880790713,-60.,4.));
#790=CARTESIAN_POINT('',(37.9999988079071,-60.,0.));
#791=CARTESIAN_POINT('Origin',(37.9999988079071,-70.,0.));
#792=CARTESIAN_POINT('',(37.9999988079071,-70.,4.));
#793=CARTESIAN_POINT('',(37.9999988079071,-60.,4.));
#794=CARTESIAN_POINT('',(37.9999988079071,-70.,0.));
#795=CARTESIAN_POINT('Origin',(-40.0000011920929,-70.,0.));
#796=CARTESIAN_POINT('',(-40.0000011920929,-70.,4.));
#797=CARTESIAN_POINT('',(37.9999988079071,-70.,4.));
#798=CARTESIAN_POINT('',(-40.0000011920929,-70.,0.));
#799=CARTESIAN_POINT('Origin',(-40.0000011920929,-60.,0.));
#800=CARTESIAN_POINT('',(-40.0000011920929,-70.,4.));
#801=CARTESIAN_POINT('Origin',(-1.00000119209286,15.,4.));
#802=UNCERTAINTY_MEASURE_WITH_UNIT(LENGTH_MEASURE(0.01),#806,
'DISTANCE_ACCURACY_VALUE',
'Maximum model space distance between geometric entities at asserted c
onnectivities');
#803=UNCERTAINTY_MEASURE_WITH_UNIT(LENGTH_MEASURE(0.01),#806,
'DISTANCE_ACCURACY_VALUE',
'Maximum model space distance between geometric entities at asserted c
onnectivities');
#804=(
GEOMETRIC_REPRESENTATION_CONTEXT(3)
GLOBAL_UNCERTAINTY_ASSIGNED_CONTEXT((#802))
GLOBAL_UNIT_ASSIGNED_CONTEXT((#806,#808,#809))
REPRESENTATION_CONTEXT('','3D')
);
#805=(
GEOMETRIC_REPRESENTATION_CONTEXT(3)
GLOBAL_UNCERTAINTY_ASSIGNED_CONTEXT((#803))
GLOBAL_UNIT_ASSIGNED_CONTEXT((#806,#808,#809))
REPRESENTATION_CONTEXT('','3D')
);
#806=(
LENGTH_UNIT()
NAMED_UNIT(*)
SI_UNIT(.MILLI.,.METRE.)
);
#807=(
LENGTH_UNIT()
NAMED_UNIT(*)
SI_UNIT($,.METRE.)
);
#808=(
NAMED_UNIT(*)
PLANE_ANGLE_UNIT()
SI_UNIT($,.RADIAN.)
);
#809=(
NAMED_UNIT(*)
SI_UNIT($,.STERADIAN.)
SOLID_ANGLE_UNIT()
);
#810=SHAPE_DEFINITION_REPRESENTATION(#811,#812);
#811=PRODUCT_DEFINITION_SHAPE('',$,#814);
#812=SHAPE_REPRESENTATION('',(#486),#804);
#813=PRODUCT_DEFINITION_CONTEXT('part definition',#818,'design');
#814=PRODUCT_DEFINITION('2026-06-19-20-18-20-474',
'line follower robo chasis',#815,#813);
#815=PRODUCT_DEFINITION_FORMATION('',$,#820);
#816=PRODUCT_RELATED_PRODUCT_CATEGORY('line follower robo chasis',
'line follower robo chasis',(#820));
#817=APPLICATION_PROTOCOL_DEFINITION('international standard',
'automotive_design',2009,#818);
#818=APPLICATION_CONTEXT(
'Core Data for Automotive Mechanical Design Process');
#819=PRODUCT_CONTEXT('part definition',#818,'mechanical');
#820=PRODUCT('2026-06-19-20-18-20-474','line follower robo chasis',$,(#819));
#821=PRESENTATION_STYLE_ASSIGNMENT((#822));
#822=SURFACE_STYLE_USAGE(.BOTH.,#823);
#823=SURFACE_SIDE_STYLE('',(#824));
#824=SURFACE_STYLE_FILL_AREA(#825);
#825=FILL_AREA_STYLE('Steel - Satin',(#826));
#826=FILL_AREA_STYLE_COLOUR('Steel - Satin',#827);
#827=COLOUR_RGB('Steel - Satin',0.627450980392157,0.627450980392157,0.627450980392157);
ENDSEC;
END-ISO-10303-21;
