ISO-10303-21;
HEADER;
/* Generated by software containing ST-Developer
 * from STEP Tools, Inc. (www.steptools.com) 
 */

FILE_DESCRIPTION(
/* description */ (''),
/* implementation_level */ '2;1');

FILE_NAME(
/* name */ 'line follower robo chasis.step',
/* time_stamp */ '2026-10-02T15:46:55+05:30',
/* author */ (''),
/* organization */ (''),
/* preprocessor_version */ 'ST-DEVELOPER v20.2',
/* originating_system */ 'Autodesk Translation Framework v15.15.0.0',
/* authorisation */ '');

FILE_SCHEMA (('AUTOMOTIVE_DESIGN { 1 0 10303 214 3 1 1 }'));
ENDSEC;

DATA;
#10=MECHANICAL_DESIGN_GEOMETRIC_PRESENTATION_REPRESENTATION('',(#13),#739);
#11=SHAPE_REPRESENTATION_RELATIONSHIP('SRR','None',#746,#12);
#12=ADVANCED_BREP_SHAPE_REPRESENTATION('',(#14),#738);
#13=STYLED_ITEM('',(#755),#14);
#14=MANIFOLD_SOLID_BREP('Body1',#431);
#15=FACE_BOUND('',#56,.T.);
#16=FACE_BOUND('',#57,.T.);
#17=FACE_BOUND('',#77,.T.);
#18=FACE_BOUND('',#78,.T.);
#19=PLANE('',#448);
#20=PLANE('',#449);
#21=PLANE('',#461);
#22=PLANE('',#468);
#23=PLANE('',#471);
#24=PLANE('',#474);
#25=PLANE('',#481);
#26=PLANE('',#482);
#27=PLANE('',#483);
#28=PLANE('',#484);
#29=PLANE('',#485);
#30=PLANE('',#486);
#31=FACE_OUTER_BOUND('',#53,.T.);
#32=FACE_OUTER_BOUND('',#54,.T.);
#33=FACE_OUTER_BOUND('',#55,.T.);
#34=FACE_OUTER_BOUND('',#58,.T.);
#35=FACE_OUTER_BOUND('',#59,.T.);
#36=FACE_OUTER_BOUND('',#60,.T.);
#37=FACE_OUTER_BOUND('',#61,.T.);
#38=FACE_OUTER_BOUND('',#62,.T.);
#39=FACE_OUTER_BOUND('',#63,.T.);
#40=FACE_OUTER_BOUND('',#64,.T.);
#41=FACE_OUTER_BOUND('',#65,.T.);
#42=FACE_OUTER_BOUND('',#66,.T.);
#43=FACE_OUTER_BOUND('',#67,.T.);
#44=FACE_OUTER_BOUND('',#68,.T.);
#45=FACE_OUTER_BOUND('',#69,.T.);
#46=FACE_OUTER_BOUND('',#70,.T.);
#47=FACE_OUTER_BOUND('',#71,.T.);
#48=FACE_OUTER_BOUND('',#72,.T.);
#49=FACE_OUTER_BOUND('',#73,.T.);
#50=FACE_OUTER_BOUND('',#74,.T.);
#51=FACE_OUTER_BOUND('',#75,.T.);
#52=FACE_OUTER_BOUND('',#76,.T.);
#53=EDGE_LOOP('',(#279,#280,#281,#282));
#54=EDGE_LOOP('',(#283,#284,#285,#286));
#55=EDGE_LOOP('',(#287,#288,#289,#290,#291,#292,#293,#294,#295,#296,#297,
#298,#299,#300,#301,#302,#303,#304));
#56=EDGE_LOOP('',(#305));
#57=EDGE_LOOP('',(#306));
#58=EDGE_LOOP('',(#307,#308,#309,#310));
#59=EDGE_LOOP('',(#311,#312,#313,#314));
#60=EDGE_LOOP('',(#315,#316,#317,#318));
#61=EDGE_LOOP('',(#319,#320,#321,#322));
#62=EDGE_LOOP('',(#323,#324,#325,#326));
#63=EDGE_LOOP('',(#327,#328,#329,#330));
#64=EDGE_LOOP('',(#331,#332,#333,#334));
#65=EDGE_LOOP('',(#335,#336,#337,#338));
#66=EDGE_LOOP('',(#339,#340,#341,#342));
#67=EDGE_LOOP('',(#343,#344,#345,#346));
#68=EDGE_LOOP('',(#347,#348,#349,#350));
#69=EDGE_LOOP('',(#351,#352,#353,#354));
#70=EDGE_LOOP('',(#355,#356,#357,#358));
#71=EDGE_LOOP('',(#359,#360,#361,#362));
#72=EDGE_LOOP('',(#363,#364,#365,#366));
#73=EDGE_LOOP('',(#367,#368,#369,#370));
#74=EDGE_LOOP('',(#371,#372,#373,#374));
#75=EDGE_LOOP('',(#375,#376,#377,#378));
#76=EDGE_LOOP('',(#379,#380,#381,#382,#383,#384,#385,#386,#387,#388,#389,
#390,#391,#392,#393,#394,#395,#396));
#77=EDGE_LOOP('',(#397));
#78=EDGE_LOOP('',(#398));
#79=LINE('',#619,#119);
#80=LINE('',#622,#120);
#81=LINE('',#625,#121);
#82=LINE('',#627,#122);
#83=LINE('',#628,#123);
#84=LINE('',#633,#124);
#85=LINE('',#637,#125);
#86=LINE('',#639,#126);
#87=LINE('',#641,#127);
#88=LINE('',#643,#128);
#89=LINE('',#645,#129);
#90=LINE('',#649,#130);
#91=LINE('',#655,#131);
#92=LINE('',#659,#132);
#93=LINE('',#667,#133);
#94=LINE('',#670,#134);
#95=LINE('',#673,#135);
#96=LINE('',#674,#136);
#97=LINE('',#678,#137);
#98=LINE('',#682,#138);
#99=LINE('',#685,#139);
#100=LINE('',#688,#140);
#101=LINE('',#691,#141);
#102=LINE('',#692,#142);
#103=LINE('',#695,#143);
#104=LINE('',#698,#144);
#105=LINE('',#701,#145);
#106=LINE('',#702,#146);
#107=LINE('',#705,#147);
#108=LINE('',#708,#148);
#109=LINE('',#714,#149);
#110=LINE('',#718,#150);
#111=LINE('',#720,#151);
#112=LINE('',#723,#152);
#113=LINE('',#724,#153);
#114=LINE('',#727,#154);
#115=LINE('',#728,#155);
#116=LINE('',#731,#156);
#117=LINE('',#732,#157);
#118=LINE('',#734,#158);
#119=VECTOR('',#493,50.);
#120=VECTOR('',#496,50.);
#121=VECTOR('',#499,10.);
#122=VECTOR('',#500,10.);
#123=VECTOR('',#501,10.);
#124=VECTOR('',#506,10.);
#125=VECTOR('',#509,10.);
#126=VECTOR('',#510,10.);
#127=VECTOR('',#511,10.);
#128=VECTOR('',#512,10.);
#129=VECTOR('',#513,10.);
#130=VECTOR('',#516,10.);
#131=VECTOR('',#521,10.);
#132=VECTOR('',#524,10.);
#133=VECTOR('',#533,50.);
#134=VECTOR('',#536,50.);
#135=VECTOR('',#539,10.);
#136=VECTOR('',#540,10.);
#137=VECTOR('',#545,1.5);
#138=VECTOR('',#550,1.5);
#139=VECTOR('',#553,10.);
#140=VECTOR('',#556,10.);
#141=VECTOR('',#559,10.);
#142=VECTOR('',#560,10.);
#143=VECTOR('',#563,10.);
#144=VECTOR('',#566,10.);
#145=VECTOR('',#569,10.);
#146=VECTOR('',#570,10.);
#147=VECTOR('',#573,10.);
#148=VECTOR('',#578,10.);
#149=VECTOR('',#587,10.);
#150=VECTOR('',#592,10.);
#151=VECTOR('',#595,10.);
#152=VECTOR('',#598,10.);
#153=VECTOR('',#599,10.);
#154=VECTOR('',#602,10.);
#155=VECTOR('',#603,10.);
#156=VECTOR('',#606,10.);
#157=VECTOR('',#607,10.);
#158=VECTOR('',#610,10.);
#159=CIRCLE('',#446,50.);
#160=CIRCLE('',#447,50.);
#161=CIRCLE('',#450,6.);
#162=CIRCLE('',#451,6.);
#163=CIRCLE('',#452,6.);
#164=CIRCLE('',#453,6.);
#165=CIRCLE('',#454,50.);
#166=CIRCLE('',#455,25.);
#167=CIRCLE('',#456,25.);
#168=CIRCLE('',#457,1.5);
#169=CIRCLE('',#458,1.5);
#170=CIRCLE('',#460,50.);
#171=CIRCLE('',#463,1.5);
#172=CIRCLE('',#465,1.5);
#173=CIRCLE('',#467,6.);
#174=CIRCLE('',#470,6.);
#175=CIRCLE('',#473,6.);
#176=CIRCLE('',#476,6.);
#177=CIRCLE('',#478,25.);
#178=CIRCLE('',#480,25.);
#179=VERTEX_POINT('',#615);
#180=VERTEX_POINT('',#616);
#181=VERTEX_POINT('',#618);
#182=VERTEX_POINT('',#620);
#183=VERTEX_POINT('',#624);
#184=VERTEX_POINT('',#626);
#185=VERTEX_POINT('',#630);
#186=VERTEX_POINT('',#632);
#187=VERTEX_POINT('',#634);
#188=VERTEX_POINT('',#636);
#189=VERTEX_POINT('',#638);
#190=VERTEX_POINT('',#640);
#191=VERTEX_POINT('',#642);
#192=VERTEX_POINT('',#644);
#193=VERTEX_POINT('',#646);
#194=VERTEX_POINT('',#648);
#195=VERTEX_POINT('',#650);
#196=VERTEX_POINT('',#652);
#197=VERTEX_POINT('',#654);
#198=VERTEX_POINT('',#656);
#199=VERTEX_POINT('',#658);
#200=VERTEX_POINT('',#661);
#201=VERTEX_POINT('',#663);
#202=VERTEX_POINT('',#666);
#203=VERTEX_POINT('',#668);
#204=VERTEX_POINT('',#672);
#205=VERTEX_POINT('',#676);
#206=VERTEX_POINT('',#680);
#207=VERTEX_POINT('',#684);
#208=VERTEX_POINT('',#686);
#209=VERTEX_POINT('',#690);
#210=VERTEX_POINT('',#694);
#211=VERTEX_POINT('',#696);
#212=VERTEX_POINT('',#700);
#213=VERTEX_POINT('',#704);
#214=VERTEX_POINT('',#712);
#215=VERTEX_POINT('',#716);
#216=VERTEX_POINT('',#722);
#217=VERTEX_POINT('',#726);
#218=VERTEX_POINT('',#730);
#219=EDGE_CURVE('',#179,#180,#159,.T.);
#220=EDGE_CURVE('',#180,#181,#79,.T.);
#221=EDGE_CURVE('',#181,#182,#160,.T.);
#222=EDGE_CURVE('',#182,#179,#80,.T.);
#223=EDGE_CURVE('',#183,#182,#81,.T.);
#224=EDGE_CURVE('',#184,#183,#82,.T.);
#225=EDGE_CURVE('',#179,#184,#83,.T.);
#226=EDGE_CURVE('',#185,#181,#161,.T.);
#227=EDGE_CURVE('',#185,#186,#84,.T.);
#228=EDGE_CURVE('',#187,#186,#162,.T.);
#229=EDGE_CURVE('',#187,#188,#85,.T.);
#230=EDGE_CURVE('',#188,#189,#86,.T.);
#231=EDGE_CURVE('',#189,#190,#87,.T.);
#232=EDGE_CURVE('',#190,#191,#88,.T.);
#233=EDGE_CURVE('',#191,#192,#89,.T.);
#234=EDGE_CURVE('',#193,#192,#163,.T.);
#235=EDGE_CURVE('',#193,#194,#90,.T.);
#236=EDGE_CURVE('',#195,#194,#164,.T.);
#237=EDGE_CURVE('',#196,#195,#165,.T.);
#238=EDGE_CURVE('',#196,#197,#91,.T.);
#239=EDGE_CURVE('',#198,#197,#166,.T.);
#240=EDGE_CURVE('',#198,#199,#92,.T.);
#241=EDGE_CURVE('',#183,#199,#167,.T.);
#242=EDGE_CURVE('',#200,#200,#168,.T.);
#243=EDGE_CURVE('',#201,#201,#169,.T.);
#244=EDGE_CURVE('',#195,#202,#93,.T.);
#245=EDGE_CURVE('',#202,#203,#170,.T.);
#246=EDGE_CURVE('',#203,#196,#94,.T.);
#247=EDGE_CURVE('',#204,#203,#95,.T.);
#248=EDGE_CURVE('',#197,#204,#96,.T.);
#249=EDGE_CURVE('',#205,#205,#171,.T.);
#250=EDGE_CURVE('',#205,#200,#97,.T.);
#251=EDGE_CURVE('',#206,#206,#172,.T.);
#252=EDGE_CURVE('',#206,#201,#98,.T.);
#253=EDGE_CURVE('',#192,#207,#99,.T.);
#254=EDGE_CURVE('',#207,#208,#173,.T.);
#255=EDGE_CURVE('',#208,#193,#100,.T.);
#256=EDGE_CURVE('',#191,#209,#101,.T.);
#257=EDGE_CURVE('',#207,#209,#102,.T.);
#258=EDGE_CURVE('',#186,#210,#103,.T.);
#259=EDGE_CURVE('',#210,#211,#174,.T.);
#260=EDGE_CURVE('',#211,#187,#104,.T.);
#261=EDGE_CURVE('',#212,#185,#105,.T.);
#262=EDGE_CURVE('',#210,#212,#106,.T.);
#263=EDGE_CURVE('',#194,#213,#107,.T.);
#264=EDGE_CURVE('',#213,#202,#175,.T.);
#265=EDGE_CURVE('',#213,#208,#108,.T.);
#266=EDGE_CURVE('',#180,#212,#176,.T.);
#267=EDGE_CURVE('',#204,#214,#177,.T.);
#268=EDGE_CURVE('',#214,#198,#109,.T.);
#269=EDGE_CURVE('',#215,#184,#178,.T.);
#270=EDGE_CURVE('',#199,#215,#110,.T.);
#271=EDGE_CURVE('',#215,#214,#111,.T.);
#272=EDGE_CURVE('',#216,#211,#112,.T.);
#273=EDGE_CURVE('',#188,#216,#113,.T.);
#274=EDGE_CURVE('',#217,#216,#114,.T.);
#275=EDGE_CURVE('',#189,#217,#115,.T.);
#276=EDGE_CURVE('',#218,#217,#116,.T.);
#277=EDGE_CURVE('',#190,#218,#117,.T.);
#278=EDGE_CURVE('',#209,#218,#118,.T.);
#279=ORIENTED_EDGE('',*,*,#219,.T.);
#280=ORIENTED_EDGE('',*,*,#220,.T.);
#281=ORIENTED_EDGE('',*,*,#221,.T.);
#282=ORIENTED_EDGE('',*,*,#222,.T.);
#283=ORIENTED_EDGE('',*,*,#222,.F.);
#284=ORIENTED_EDGE('',*,*,#223,.F.);
#285=ORIENTED_EDGE('',*,*,#224,.F.);
#286=ORIENTED_EDGE('',*,*,#225,.F.);
#287=ORIENTED_EDGE('',*,*,#221,.F.);
#288=ORIENTED_EDGE('',*,*,#226,.F.);
#289=ORIENTED_EDGE('',*,*,#227,.T.);
#290=ORIENTED_EDGE('',*,*,#228,.F.);
#291=ORIENTED_EDGE('',*,*,#229,.T.);
#292=ORIENTED_EDGE('',*,*,#230,.T.);
#293=ORIENTED_EDGE('',*,*,#231,.T.);
#294=ORIENTED_EDGE('',*,*,#232,.T.);
#295=ORIENTED_EDGE('',*,*,#233,.T.);
#296=ORIENTED_EDGE('',*,*,#234,.F.);
#297=ORIENTED_EDGE('',*,*,#235,.T.);
#298=ORIENTED_EDGE('',*,*,#236,.F.);
#299=ORIENTED_EDGE('',*,*,#237,.F.);
#300=ORIENTED_EDGE('',*,*,#238,.T.);
#301=ORIENTED_EDGE('',*,*,#239,.F.);
#302=ORIENTED_EDGE('',*,*,#240,.T.);
#303=ORIENTED_EDGE('',*,*,#241,.F.);
#304=ORIENTED_EDGE('',*,*,#223,.T.);
#305=ORIENTED_EDGE('',*,*,#242,.T.);
#306=ORIENTED_EDGE('',*,*,#243,.T.);
#307=ORIENTED_EDGE('',*,*,#237,.T.);
#308=ORIENTED_EDGE('',*,*,#244,.T.);
#309=ORIENTED_EDGE('',*,*,#245,.T.);
#310=ORIENTED_EDGE('',*,*,#246,.T.);
#311=ORIENTED_EDGE('',*,*,#246,.F.);
#312=ORIENTED_EDGE('',*,*,#247,.F.);
#313=ORIENTED_EDGE('',*,*,#248,.F.);
#314=ORIENTED_EDGE('',*,*,#238,.F.);
#315=ORIENTED_EDGE('',*,*,#249,.F.);
#316=ORIENTED_EDGE('',*,*,#250,.T.);
#317=ORIENTED_EDGE('',*,*,#242,.F.);
#318=ORIENTED_EDGE('',*,*,#250,.F.);
#319=ORIENTED_EDGE('',*,*,#251,.F.);
#320=ORIENTED_EDGE('',*,*,#252,.T.);
#321=ORIENTED_EDGE('',*,*,#243,.F.);
#322=ORIENTED_EDGE('',*,*,#252,.F.);
#323=ORIENTED_EDGE('',*,*,#234,.T.);
#324=ORIENTED_EDGE('',*,*,#253,.T.);
#325=ORIENTED_EDGE('',*,*,#254,.T.);
#326=ORIENTED_EDGE('',*,*,#255,.T.);
#327=ORIENTED_EDGE('',*,*,#253,.F.);
#328=ORIENTED_EDGE('',*,*,#233,.F.);
#329=ORIENTED_EDGE('',*,*,#256,.T.);
#330=ORIENTED_EDGE('',*,*,#257,.F.);
#331=ORIENTED_EDGE('',*,*,#228,.T.);
#332=ORIENTED_EDGE('',*,*,#258,.T.);
#333=ORIENTED_EDGE('',*,*,#259,.T.);
#334=ORIENTED_EDGE('',*,*,#260,.T.);
#335=ORIENTED_EDGE('',*,*,#258,.F.);
#336=ORIENTED_EDGE('',*,*,#227,.F.);
#337=ORIENTED_EDGE('',*,*,#261,.F.);
#338=ORIENTED_EDGE('',*,*,#262,.F.);
#339=ORIENTED_EDGE('',*,*,#244,.F.);
#340=ORIENTED_EDGE('',*,*,#236,.T.);
#341=ORIENTED_EDGE('',*,*,#263,.T.);
#342=ORIENTED_EDGE('',*,*,#264,.T.);
#343=ORIENTED_EDGE('',*,*,#255,.F.);
#344=ORIENTED_EDGE('',*,*,#265,.F.);
#345=ORIENTED_EDGE('',*,*,#263,.F.);
#346=ORIENTED_EDGE('',*,*,#235,.F.);
#347=ORIENTED_EDGE('',*,*,#220,.F.);
#348=ORIENTED_EDGE('',*,*,#266,.T.);
#349=ORIENTED_EDGE('',*,*,#261,.T.);
#350=ORIENTED_EDGE('',*,*,#226,.T.);
#351=ORIENTED_EDGE('',*,*,#267,.T.);
#352=ORIENTED_EDGE('',*,*,#268,.T.);
#353=ORIENTED_EDGE('',*,*,#239,.T.);
#354=ORIENTED_EDGE('',*,*,#248,.T.);
#355=ORIENTED_EDGE('',*,*,#269,.T.);
#356=ORIENTED_EDGE('',*,*,#224,.T.);
#357=ORIENTED_EDGE('',*,*,#241,.T.);
#358=ORIENTED_EDGE('',*,*,#270,.T.);
#359=ORIENTED_EDGE('',*,*,#268,.F.);
#360=ORIENTED_EDGE('',*,*,#271,.F.);
#361=ORIENTED_EDGE('',*,*,#270,.F.);
#362=ORIENTED_EDGE('',*,*,#240,.F.);
#363=ORIENTED_EDGE('',*,*,#260,.F.);
#364=ORIENTED_EDGE('',*,*,#272,.F.);
#365=ORIENTED_EDGE('',*,*,#273,.F.);
#366=ORIENTED_EDGE('',*,*,#229,.F.);
#367=ORIENTED_EDGE('',*,*,#230,.F.);
#368=ORIENTED_EDGE('',*,*,#273,.T.);
#369=ORIENTED_EDGE('',*,*,#274,.F.);
#370=ORIENTED_EDGE('',*,*,#275,.F.);
#371=ORIENTED_EDGE('',*,*,#231,.F.);
#372=ORIENTED_EDGE('',*,*,#275,.T.);
#373=ORIENTED_EDGE('',*,*,#276,.F.);
#374=ORIENTED_EDGE('',*,*,#277,.F.);
#375=ORIENTED_EDGE('',*,*,#232,.F.);
#376=ORIENTED_EDGE('',*,*,#277,.T.);
#377=ORIENTED_EDGE('',*,*,#278,.F.);
#378=ORIENTED_EDGE('',*,*,#256,.F.);
#379=ORIENTED_EDGE('',*,*,#219,.F.);
#380=ORIENTED_EDGE('',*,*,#225,.T.);
#381=ORIENTED_EDGE('',*,*,#269,.F.);
#382=ORIENTED_EDGE('',*,*,#271,.T.);
#383=ORIENTED_EDGE('',*,*,#267,.F.);
#384=ORIENTED_EDGE('',*,*,#247,.T.);
#385=ORIENTED_EDGE('',*,*,#245,.F.);
#386=ORIENTED_EDGE('',*,*,#264,.F.);
#387=ORIENTED_EDGE('',*,*,#265,.T.);
#388=ORIENTED_EDGE('',*,*,#254,.F.);
#389=ORIENTED_EDGE('',*,*,#257,.T.);
#390=ORIENTED_EDGE('',*,*,#278,.T.);
#391=ORIENTED_EDGE('',*,*,#276,.T.);
#392=ORIENTED_EDGE('',*,*,#274,.T.);
#393=ORIENTED_EDGE('',*,*,#272,.T.);
#394=ORIENTED_EDGE('',*,*,#259,.F.);
#395=ORIENTED_EDGE('',*,*,#262,.T.);
#396=ORIENTED_EDGE('',*,*,#266,.F.);
#397=ORIENTED_EDGE('',*,*,#249,.T.);
#398=ORIENTED_EDGE('',*,*,#251,.T.);
#399=CYLINDRICAL_SURFACE('',#445,50.);
#400=CYLINDRICAL_SURFACE('',#459,50.);
#401=CYLINDRICAL_SURFACE('',#462,1.5);
#402=CYLINDRICAL_SURFACE('',#464,1.5);
#403=CYLINDRICAL_SURFACE('',#466,6.);
#404=CYLINDRICAL_SURFACE('',#469,6.);
#405=CYLINDRICAL_SURFACE('',#472,6.);
#406=CYLINDRICAL_SURFACE('',#475,6.);
#407=CYLINDRICAL_SURFACE('',#477,25.);
#408=CYLINDRICAL_SURFACE('',#479,25.);
#409=ADVANCED_FACE('',(#31),#399,.T.);
#410=ADVANCED_FACE('',(#32),#19,.T.);
#411=ADVANCED_FACE('',(#33,#15,#16),#20,.F.);
#412=ADVANCED_FACE('',(#34),#400,.T.);
#413=ADVANCED_FACE('',(#35),#21,.T.);
#414=ADVANCED_FACE('',(#36),#401,.F.);
#415=ADVANCED_FACE('',(#37),#402,.F.);
#416=ADVANCED_FACE('',(#38),#403,.F.);
#417=ADVANCED_FACE('',(#39),#22,.T.);
#418=ADVANCED_FACE('',(#40),#404,.F.);
#419=ADVANCED_FACE('',(#41),#23,.T.);
#420=ADVANCED_FACE('',(#42),#405,.F.);
#421=ADVANCED_FACE('',(#43),#24,.T.);
#422=ADVANCED_FACE('',(#44),#406,.F.);
#423=ADVANCED_FACE('',(#45),#407,.T.);
#424=ADVANCED_FACE('',(#46),#408,.T.);
#425=ADVANCED_FACE('',(#47),#25,.T.);
#426=ADVANCED_FACE('',(#48),#26,.T.);
#427=ADVANCED_FACE('',(#49),#27,.T.);
#428=ADVANCED_FACE('',(#50),#28,.T.);
#429=ADVANCED_FACE('',(#51),#29,.T.);
#430=ADVANCED_FACE('',(#52,#17,#18),#30,.T.);
#431=CLOSED_SHELL('',(#409,#410,#411,#412,#413,#414,#415,#416,#417,#418,
#419,#420,#421,#422,#423,#424,#425,#426,#427,#428,#429,#430));
#432=DERIVED_UNIT_ELEMENT(#434,1.);
#433=DERIVED_UNIT_ELEMENT(#741,-3.);
#434=(
MASS_UNIT()
NAMED_UNIT(*)
SI_UNIT(.KILO.,.GRAM.)
);
#435=DERIVED_UNIT((#432,#433));
#436=MEASURE_REPRESENTATION_ITEM('density measure',
POSITIVE_RATIO_MEASURE(7850.),#435);
#437=PROPERTY_DEFINITION_REPRESENTATION(#442,#439);
#438=PROPERTY_DEFINITION_REPRESENTATION(#443,#440);
#439=REPRESENTATION('material name',(#441),#738);
#440=REPRESENTATION('density',(#436),#738);
#441=DESCRIPTIVE_REPRESENTATION_ITEM('Steel','Steel');
#442=PROPERTY_DEFINITION('material property','material name',#748);
#443=PROPERTY_DEFINITION('material property','density of part',#748);
#444=AXIS2_PLACEMENT_3D('',#613,#487,#488);
#445=AXIS2_PLACEMENT_3D('',#614,#489,#490);
#446=AXIS2_PLACEMENT_3D('',#617,#491,#492);
#447=AXIS2_PLACEMENT_3D('',#621,#494,#495);
#448=AXIS2_PLACEMENT_3D('',#623,#497,#498);
#449=AXIS2_PLACEMENT_3D('',#629,#502,#503);
#450=AXIS2_PLACEMENT_3D('',#631,#504,#505);
#451=AXIS2_PLACEMENT_3D('',#635,#507,#508);
#452=AXIS2_PLACEMENT_3D('',#647,#514,#515);
#453=AXIS2_PLACEMENT_3D('',#651,#517,#518);
#454=AXIS2_PLACEMENT_3D('',#653,#519,#520);
#455=AXIS2_PLACEMENT_3D('',#657,#522,#523);
#456=AXIS2_PLACEMENT_3D('',#660,#525,#526);
#457=AXIS2_PLACEMENT_3D('',#662,#527,#528);
#458=AXIS2_PLACEMENT_3D('',#664,#529,#530);
#459=AXIS2_PLACEMENT_3D('',#665,#531,#532);
#460=AXIS2_PLACEMENT_3D('',#669,#534,#535);
#461=AXIS2_PLACEMENT_3D('',#671,#537,#538);
#462=AXIS2_PLACEMENT_3D('',#675,#541,#542);
#463=AXIS2_PLACEMENT_3D('',#677,#543,#544);
#464=AXIS2_PLACEMENT_3D('',#679,#546,#547);
#465=AXIS2_PLACEMENT_3D('',#681,#548,#549);
#466=AXIS2_PLACEMENT_3D('',#683,#551,#552);
#467=AXIS2_PLACEMENT_3D('',#687,#554,#555);
#468=AXIS2_PLACEMENT_3D('',#689,#557,#558);
#469=AXIS2_PLACEMENT_3D('',#693,#561,#562);
#470=AXIS2_PLACEMENT_3D('',#697,#564,#565);
#471=AXIS2_PLACEMENT_3D('',#699,#567,#568);
#472=AXIS2_PLACEMENT_3D('',#703,#571,#572);
#473=AXIS2_PLACEMENT_3D('',#706,#574,#575);
#474=AXIS2_PLACEMENT_3D('',#707,#576,#577);
#475=AXIS2_PLACEMENT_3D('',#709,#579,#580);
#476=AXIS2_PLACEMENT_3D('',#710,#581,#582);
#477=AXIS2_PLACEMENT_3D('',#711,#583,#584);
#478=AXIS2_PLACEMENT_3D('',#713,#585,#586);
#479=AXIS2_PLACEMENT_3D('',#715,#588,#589);
#480=AXIS2_PLACEMENT_3D('',#717,#590,#591);
#481=AXIS2_PLACEMENT_3D('',#719,#593,#594);
#482=AXIS2_PLACEMENT_3D('',#721,#596,#597);
#483=AXIS2_PLACEMENT_3D('',#725,#600,#601);
#484=AXIS2_PLACEMENT_3D('',#729,#604,#605);
#485=AXIS2_PLACEMENT_3D('',#733,#608,#609);
#486=AXIS2_PLACEMENT_3D('',#735,#611,#612);
#487=DIRECTION('axis',(0.,0.,1.));
#488=DIRECTION('refdir',(1.,0.,0.));
#489=DIRECTION('center_axis',(0.,0.,-1.));
#490=DIRECTION('ref_axis',(-1.,1.77635683940025E-16,0.));
#491=DIRECTION('center_axis',(0.,0.,-1.));
#492=DIRECTION('ref_axis',(-1.,1.77635683940025E-16,0.));
#493=DIRECTION('',(0.,0.,-1.));
#494=DIRECTION('center_axis',(0.,0.,1.));
#495=DIRECTION('ref_axis',(-1.,1.77635683940025E-16,0.));
#496=DIRECTION('',(0.,0.,1.));
#497=DIRECTION('center_axis',(1.,-8.88178419700125E-17,0.));
#498=DIRECTION('ref_axis',(8.88178419700125E-17,1.,0.));
#499=DIRECTION('',(-8.88178419700125E-17,-1.,0.));
#500=DIRECTION('',(0.,0.,-1.));
#501=DIRECTION('',(8.88178419700125E-17,1.,0.));
#502=DIRECTION('center_axis',(0.,0.,1.));
#503=DIRECTION('ref_axis',(1.,0.,0.));
#504=DIRECTION('center_axis',(0.,0.,-1.));
#505=DIRECTION('ref_axis',(-0.707106781186547,0.707106781186548,0.));
#506=DIRECTION('',(-2.59052039079203E-16,-1.,0.));
#507=DIRECTION('center_axis',(0.,0.,-1.));
#508=DIRECTION('ref_axis',(-0.707106781186548,-0.707106781186547,0.));
#509=DIRECTION('',(1.,0.,0.));
#510=DIRECTION('',(0.,-1.,0.));
#511=DIRECTION('',(-1.,0.,0.));
#512=DIRECTION('',(0.,1.,0.));
#513=DIRECTION('',(1.,0.,0.));
#514=DIRECTION('center_axis',(0.,0.,-1.));
#515=DIRECTION('ref_axis',(0.707106781186548,-0.707106781186547,0.));
#516=DIRECTION('',(7.40148683083438E-17,1.,0.));
#517=DIRECTION('center_axis',(0.,0.,-1.));
#518=DIRECTION('ref_axis',(0.707106781186548,0.707106781186548,0.));
#519=DIRECTION('center_axis',(0.,0.,1.));
#520=DIRECTION('ref_axis',(1.,-1.77635683940025E-16,0.));
#521=DIRECTION('',(8.88178419700125E-17,1.,0.));
#522=DIRECTION('center_axis',(0.,0.,1.));
#523=DIRECTION('ref_axis',(-0.707106781186547,0.707106781186547,0.));
#524=DIRECTION('',(1.,0.,0.));
#525=DIRECTION('center_axis',(0.,0.,1.));
#526=DIRECTION('ref_axis',(0.707106781186547,0.707106781186548,0.));
#527=DIRECTION('center_axis',(0.,0.,1.));
#528=DIRECTION('ref_axis',(1.,0.,0.));
#529=DIRECTION('center_axis',(0.,0.,1.));
#530=DIRECTION('ref_axis',(1.,0.,0.));
#531=DIRECTION('center_axis',(0.,0.,1.));
#532=DIRECTION('ref_axis',(1.,-1.77635683940025E-16,0.));
#533=DIRECTION('',(0.,0.,1.));
#534=DIRECTION('center_axis',(0.,0.,-1.));
#535=DIRECTION('ref_axis',(1.,-1.77635683940025E-16,0.));
#536=DIRECTION('',(0.,0.,-1.));
#537=DIRECTION('center_axis',(-1.,8.88178419700125E-17,0.));
#538=DIRECTION('ref_axis',(-8.88178419700125E-17,-1.,0.));
#539=DIRECTION('',(-8.88178419700125E-17,-1.,0.));
#540=DIRECTION('',(0.,0.,1.));
#541=DIRECTION('center_axis',(0.,0.,-1.));
#542=DIRECTION('ref_axis',(1.,0.,0.));
#543=DIRECTION('center_axis',(0.,0.,-1.));
#544=DIRECTION('ref_axis',(1.,0.,0.));
#545=DIRECTION('',(0.,0.,-1.));
#546=DIRECTION('center_axis',(0.,0.,-1.));
#547=DIRECTION('ref_axis',(1.,0.,0.));
#548=DIRECTION('center_axis',(0.,0.,-1.));
#549=DIRECTION('ref_axis',(1.,0.,0.));
#550=DIRECTION('',(0.,0.,-1.));
#551=DIRECTION('center_axis',(0.,0.,1.));
#552=DIRECTION('ref_axis',(0.707106781186548,-0.707106781186547,0.));
#553=DIRECTION('',(0.,0.,1.));
#554=DIRECTION('center_axis',(0.,0.,1.));
#555=DIRECTION('ref_axis',(0.707106781186548,-0.707106781186547,0.));
#556=DIRECTION('',(0.,0.,-1.));
#557=DIRECTION('center_axis',(0.,1.,0.));
#558=DIRECTION('ref_axis',(-1.,0.,0.));
#559=DIRECTION('',(0.,0.,1.));
#560=DIRECTION('',(-1.,0.,0.));
#561=DIRECTION('center_axis',(0.,0.,1.));
#562=DIRECTION('ref_axis',(-0.707106781186548,-0.707106781186547,0.));
#563=DIRECTION('',(0.,0.,1.));
#564=DIRECTION('center_axis',(0.,0.,1.));
#565=DIRECTION('ref_axis',(-0.707106781186548,-0.707106781186547,0.));
#566=DIRECTION('',(0.,0.,-1.));
#567=DIRECTION('center_axis',(1.,-2.59052039079203E-16,0.));
#568=DIRECTION('ref_axis',(2.59052039079203E-16,1.,0.));
#569=DIRECTION('',(0.,0.,-1.));
#570=DIRECTION('',(2.59052039079203E-16,1.,0.));
#571=DIRECTION('center_axis',(0.,0.,1.));
#572=DIRECTION('ref_axis',(0.707106781186548,0.707106781186548,0.));
#573=DIRECTION('',(0.,0.,1.));
#574=DIRECTION('center_axis',(0.,0.,1.));
#575=DIRECTION('ref_axis',(0.707106781186548,0.707106781186548,0.));
#576=DIRECTION('center_axis',(-1.,7.40148683083438E-17,0.));
#577=DIRECTION('ref_axis',(-7.40148683083438E-17,-1.,0.));
#578=DIRECTION('',(-7.40148683083438E-17,-1.,0.));
#579=DIRECTION('center_axis',(0.,0.,1.));
#580=DIRECTION('ref_axis',(-0.707106781186547,0.707106781186548,0.));
#581=DIRECTION('center_axis',(0.,0.,1.));
#582=DIRECTION('ref_axis',(-0.707106781186547,0.707106781186548,0.));
#583=DIRECTION('center_axis',(0.,0.,1.));
#584=DIRECTION('ref_axis',(-0.707106781186547,0.707106781186547,0.));
#585=DIRECTION('center_axis',(0.,0.,-1.));
#586=DIRECTION('ref_axis',(-0.707106781186547,0.707106781186547,0.));
#587=DIRECTION('',(0.,0.,-1.));
#588=DIRECTION('center_axis',(0.,0.,1.));
#589=DIRECTION('ref_axis',(0.707106781186547,0.707106781186548,0.));
#590=DIRECTION('center_axis',(0.,0.,-1.));
#591=DIRECTION('ref_axis',(0.707106781186547,0.707106781186548,0.));
#592=DIRECTION('',(0.,0.,1.));
#593=DIRECTION('center_axis',(0.,1.,0.));
#594=DIRECTION('ref_axis',(-1.,0.,0.));
#595=DIRECTION('',(-1.,0.,0.));
#596=DIRECTION('center_axis',(0.,1.,0.));
#597=DIRECTION('ref_axis',(-1.,0.,0.));
#598=DIRECTION('',(-1.,0.,0.));
#599=DIRECTION('',(0.,0.,1.));
#600=DIRECTION('center_axis',(1.,0.,0.));
#601=DIRECTION('ref_axis',(0.,1.,0.));
#602=DIRECTION('',(0.,1.,0.));
#603=DIRECTION('',(0.,0.,1.));
#604=DIRECTION('center_axis',(0.,-1.,0.));
#605=DIRECTION('ref_axis',(1.,0.,0.));
#606=DIRECTION('',(1.,0.,0.));
#607=DIRECTION('',(0.,0.,1.));
#608=DIRECTION('center_axis',(-1.,0.,0.));
#609=DIRECTION('ref_axis',(0.,-1.,0.));
#610=DIRECTION('',(0.,-1.,0.));
#611=DIRECTION('center_axis',(0.,0.,1.));
#612=DIRECTION('ref_axis',(1.,0.,0.));
#613=CARTESIAN_POINT('',(0.,0.,0.));
#614=CARTESIAN_POINT('Origin',(9.99999880790714,49.6776436283002,0.));
#615=CARTESIAN_POINT('',(59.9999988079071,49.6776436283002,4.));
#616=CARTESIAN_POINT('',(15.35714166505,-0.0345381826821223,4.));
#617=CARTESIAN_POINT('Origin',(9.99999880790714,49.6776436283002,4.));
#618=CARTESIAN_POINT('',(15.35714166505,-0.0345381826821223,0.));
#619=CARTESIAN_POINT('',(15.35714166505,-0.0345381826821178,0.));
#620=CARTESIAN_POINT('',(59.9999988079071,49.6776436283002,0.));
#621=CARTESIAN_POINT('Origin',(9.99999880790714,49.6776436283002,0.));
#622=CARTESIAN_POINT('',(59.9999988079071,49.6776436283002,0.));
#623=CARTESIAN_POINT('Origin',(59.9999988079071,0.,0.));
#624=CARTESIAN_POINT('',(59.9999988079071,75.,0.));
#625=CARTESIAN_POINT('',(59.9999988079071,100.,0.));
#626=CARTESIAN_POINT('',(59.9999988079071,75.,4.));
#627=CARTESIAN_POINT('',(59.9999988079071,75.,0.));
#628=CARTESIAN_POINT('',(59.9999988079071,100.,4.));
#629=CARTESIAN_POINT('Origin',(-1.00000119209286,15.,0.));
#630=CARTESIAN_POINT('',(9.99999880790714,-6.,0.));
#631=CARTESIAN_POINT('Origin',(15.9999988079071,-6.00000000000001,0.));
#632=CARTESIAN_POINT('',(9.99999880790713,-54.,0.));
#633=CARTESIAN_POINT('',(9.99999880790714,-3.2683797192561E-15,0.));
#634=CARTESIAN_POINT('',(15.9999988079071,-60.,0.));
#635=CARTESIAN_POINT('Origin',(15.9999988079071,-54.,0.));
#636=CARTESIAN_POINT('',(37.9999988079071,-60.,0.));
#637=CARTESIAN_POINT('',(9.99999880790713,-60.,0.));
#638=CARTESIAN_POINT('',(37.9999988079071,-70.,0.));
#639=CARTESIAN_POINT('',(37.9999988079071,-60.,0.));
#640=CARTESIAN_POINT('',(-40.0000011920929,-70.,0.));
#641=CARTESIAN_POINT('',(37.9999988079071,-70.,0.));
#642=CARTESIAN_POINT('',(-40.0000011920929,-60.,0.));
#643=CARTESIAN_POINT('',(-40.0000011920929,-70.,0.));
#644=CARTESIAN_POINT('',(-18.0000011920929,-60.,0.));
#645=CARTESIAN_POINT('',(-40.0000011920929,-60.,0.));
#646=CARTESIAN_POINT('',(-12.0000011920929,-54.,0.));
#647=CARTESIAN_POINT('Origin',(-18.0000011920929,-54.,0.));
#648=CARTESIAN_POINT('',(-12.0000011920929,-6.,0.));
#649=CARTESIAN_POINT('',(-12.0000011920929,-60.,0.));
#650=CARTESIAN_POINT('',(-17.3571440492357,-0.0345381826821189,0.));
#651=CARTESIAN_POINT('Origin',(-18.0000011920929,-6.,0.));
#652=CARTESIAN_POINT('',(-62.0000011920929,49.6776436283002,0.));
#653=CARTESIAN_POINT('Origin',(-12.0000011920929,49.6776436283002,0.));
#654=CARTESIAN_POINT('',(-62.0000011920929,75.,0.));
#655=CARTESIAN_POINT('',(-62.0000011920929,1.22464752909371E-16,0.));
#656=CARTESIAN_POINT('',(-37.0000011920929,100.,0.));
#657=CARTESIAN_POINT('Origin',(-37.0000011920929,75.,0.));
#658=CARTESIAN_POINT('',(34.9999988079071,100.,0.));
#659=CARTESIAN_POINT('',(-62.0000011920929,100.,0.));
#660=CARTESIAN_POINT('Origin',(34.9999988079071,75.,0.));
#661=CARTESIAN_POINT('',(11.1439448867904,-64.5934113147145,0.));
#662=CARTESIAN_POINT('Origin',(12.6439448867904,-64.5934113147145,0.));
#663=CARTESIAN_POINT('',(-14.6996077694501,-64.4309431381296,0.));
#664=CARTESIAN_POINT('Origin',(-13.1996077694501,-64.4309431381296,0.));
#665=CARTESIAN_POINT('Origin',(-12.0000011920929,49.6776436283002,0.));
#666=CARTESIAN_POINT('',(-17.3571440492357,-0.0345381826821189,4.));
#667=CARTESIAN_POINT('',(-17.3571440492357,-0.034538182682109,0.));
#668=CARTESIAN_POINT('',(-62.0000011920929,49.6776436283002,4.));
#669=CARTESIAN_POINT('Origin',(-12.0000011920929,49.6776436283002,4.));
#670=CARTESIAN_POINT('',(-62.0000011920929,49.6776436283002,0.));
#671=CARTESIAN_POINT('Origin',(-62.0000011920929,100.,0.));
#672=CARTESIAN_POINT('',(-62.0000011920929,75.,4.));
#673=CARTESIAN_POINT('',(-62.0000011920929,1.22464752909371E-16,4.));
#674=CARTESIAN_POINT('',(-62.0000011920929,75.,0.));
#675=CARTESIAN_POINT('Origin',(12.6439448867904,-64.5934113147145,-1.));
#676=CARTESIAN_POINT('',(11.1439448867904,-64.5934113147145,4.));
#677=CARTESIAN_POINT('Origin',(12.6439448867904,-64.5934113147145,4.));
#678=CARTESIAN_POINT('',(11.1439448867904,-64.5934113147145,-1.));
#679=CARTESIAN_POINT('Origin',(-13.1996077694501,-64.4309431381296,-1.));
#680=CARTESIAN_POINT('',(-14.6996077694501,-64.4309431381296,4.));
#681=CARTESIAN_POINT('Origin',(-13.1996077694501,-64.4309431381296,4.));
#682=CARTESIAN_POINT('',(-14.6996077694501,-64.4309431381296,-1.));
#683=CARTESIAN_POINT('Origin',(-18.0000011920929,-54.,0.));
#684=CARTESIAN_POINT('',(-18.0000011920929,-60.,4.));
#685=CARTESIAN_POINT('',(-18.0000011920929,-60.,0.));
#686=CARTESIAN_POINT('',(-12.0000011920929,-54.,4.));
#687=CARTESIAN_POINT('Origin',(-18.0000011920929,-54.,4.));
#688=CARTESIAN_POINT('',(-12.0000011920929,-54.,0.));
#689=CARTESIAN_POINT('Origin',(-12.0000011920929,-60.,0.));
#690=CARTESIAN_POINT('',(-40.0000011920929,-60.,4.));
#691=CARTESIAN_POINT('',(-40.0000011920929,-60.,0.));
#692=CARTESIAN_POINT('',(-40.0000011920929,-60.,4.));
#693=CARTESIAN_POINT('Origin',(15.9999988079071,-54.,0.));
#694=CARTESIAN_POINT('',(9.99999880790713,-54.,4.));
#695=CARTESIAN_POINT('',(9.99999880790713,-54.,0.));
#696=CARTESIAN_POINT('',(15.9999988079071,-60.,4.));
#697=CARTESIAN_POINT('Origin',(15.9999988079071,-54.,4.));
#698=CARTESIAN_POINT('',(15.9999988079071,-60.,0.));
#699=CARTESIAN_POINT('Origin',(9.99999880790713,-60.,0.));
#700=CARTESIAN_POINT('',(9.99999880790714,-6.,4.));
#701=CARTESIAN_POINT('',(9.99999880790714,-6.,0.));
#702=CARTESIAN_POINT('',(9.99999880790714,-3.2683797192561E-15,4.));
#703=CARTESIAN_POINT('Origin',(-18.0000011920929,-6.,0.));
#704=CARTESIAN_POINT('',(-12.0000011920929,-6.,4.));
#705=CARTESIAN_POINT('',(-12.0000011920929,-6.,0.));
#706=CARTESIAN_POINT('Origin',(-18.0000011920929,-6.,4.));
#707=CARTESIAN_POINT('Origin',(-12.0000011920929,0.,0.));
#708=CARTESIAN_POINT('',(-12.0000011920929,-60.,4.));
#709=CARTESIAN_POINT('Origin',(15.9999988079071,-6.00000000000001,0.));
#710=CARTESIAN_POINT('Origin',(15.9999988079071,-6.00000000000001,4.));
#711=CARTESIAN_POINT('Origin',(-37.0000011920929,75.,0.));
#712=CARTESIAN_POINT('',(-37.0000011920929,100.,4.));
#713=CARTESIAN_POINT('Origin',(-37.0000011920929,75.,4.));
#714=CARTESIAN_POINT('',(-37.0000011920929,100.,0.));
#715=CARTESIAN_POINT('Origin',(34.9999988079071,75.,0.));
#716=CARTESIAN_POINT('',(34.9999988079071,100.,4.));
#717=CARTESIAN_POINT('Origin',(34.9999988079071,75.,4.));
#718=CARTESIAN_POINT('',(34.9999988079071,100.,0.));
#719=CARTESIAN_POINT('Origin',(59.9999988079071,100.,0.));
#720=CARTESIAN_POINT('',(-62.0000011920929,100.,4.));
#721=CARTESIAN_POINT('Origin',(37.9999988079071,-60.,0.));
#722=CARTESIAN_POINT('',(37.9999988079071,-60.,4.));
#723=CARTESIAN_POINT('',(9.99999880790713,-60.,4.));
#724=CARTESIAN_POINT('',(37.9999988079071,-60.,0.));
#725=CARTESIAN_POINT('Origin',(37.9999988079071,-70.,0.));
#726=CARTESIAN_POINT('',(37.9999988079071,-70.,4.));
#727=CARTESIAN_POINT('',(37.9999988079071,-60.,4.));
#728=CARTESIAN_POINT('',(37.9999988079071,-70.,0.));
#729=CARTESIAN_POINT('Origin',(-40.0000011920929,-70.,0.));
#730=CARTESIAN_POINT('',(-40.0000011920929,-70.,4.));
#731=CARTESIAN_POINT('',(37.9999988079071,-70.,4.));
#732=CARTESIAN_POINT('',(-40.0000011920929,-70.,0.));
#733=CARTESIAN_POINT('Origin',(-40.0000011920929,-60.,0.));
#734=CARTESIAN_POINT('',(-40.0000011920929,-70.,4.));
#735=CARTESIAN_POINT('Origin',(-1.00000119209286,15.,4.));
#736=UNCERTAINTY_MEASURE_WITH_UNIT(LENGTH_MEASURE(0.01),#740,
'DISTANCE_ACCURACY_VALUE',
'Maximum model space distance between geometric entities at asserted c
onnectivities');
#737=UNCERTAINTY_MEASURE_WITH_UNIT(LENGTH_MEASURE(0.01),#740,
'DISTANCE_ACCURACY_VALUE',
'Maximum model space distance between geometric entities at asserted c
onnectivities');
#738=(
GEOMETRIC_REPRESENTATION_CONTEXT(3)
GLOBAL_UNCERTAINTY_ASSIGNED_CONTEXT((#736))
GLOBAL_UNIT_ASSIGNED_CONTEXT((#740,#742,#743))
REPRESENTATION_CONTEXT('','3D')
);
#739=(
GEOMETRIC_REPRESENTATION_CONTEXT(3)
GLOBAL_UNCERTAINTY_ASSIGNED_CONTEXT((#737))
GLOBAL_UNIT_ASSIGNED_CONTEXT((#740,#742,#743))
REPRESENTATION_CONTEXT('','3D')
);
#740=(
LENGTH_UNIT()
NAMED_UNIT(*)
SI_UNIT(.MILLI.,.METRE.)
);
#741=(
LENGTH_UNIT()
NAMED_UNIT(*)
SI_UNIT($,.METRE.)
);
#742=(
NAMED_UNIT(*)
PLANE_ANGLE_UNIT()
SI_UNIT($,.RADIAN.)
);
#743=(
NAMED_UNIT(*)
SI_UNIT($,.STERADIAN.)
SOLID_ANGLE_UNIT()
);
#744=SHAPE_DEFINITION_REPRESENTATION(#745,#746);
#745=PRODUCT_DEFINITION_SHAPE('',$,#748);
#746=SHAPE_REPRESENTATION('',(#444),#738);
#747=PRODUCT_DEFINITION_CONTEXT('part definition',#752,'design');
#748=PRODUCT_DEFINITION('2026-06-19-20-18-20-474',
'line follower robo chasis',#749,#747);
#749=PRODUCT_DEFINITION_FORMATION('',$,#754);
#750=PRODUCT_RELATED_PRODUCT_CATEGORY('line follower robo chasis',
'line follower robo chasis',(#754));
#751=APPLICATION_PROTOCOL_DEFINITION('international standard',
'automotive_design',2009,#752);
#752=APPLICATION_CONTEXT(
'Core Data for Automotive Mechanical Design Process');
#753=PRODUCT_CONTEXT('part definition',#752,'mechanical');
#754=PRODUCT('2026-06-19-20-18-20-474','line follower robo chasis',$,(#753));
#755=PRESENTATION_STYLE_ASSIGNMENT((#756));
#756=SURFACE_STYLE_USAGE(.BOTH.,#757);
#757=SURFACE_SIDE_STYLE('',(#758));
#758=SURFACE_STYLE_FILL_AREA(#759);
#759=FILL_AREA_STYLE('Steel - Satin',(#760));
#760=FILL_AREA_STYLE_COLOUR('Steel - Satin',#761);
#761=COLOUR_RGB('Steel - Satin',0.627450980392157,0.627450980392157,0.627450980392157);
ENDSEC;
END-ISO-10303-21;
